<svg xmlns="http://www.w3.org/2000/svg" viewBox="0 0 422.26 459.33"><defs><style>.cls-1{fill:#ffcb5f;}.cls-1,.cls-2{stroke:#6e6e6e;stroke-miterlimit:10;stroke-width:0.85px;}.cls-2{fill:#fffd8a;}</style></defs><g id="Layer_2" data-name="Layer 2"><g id="Layer_1-2" data-name="Layer 1"><path class="cls-1" d="M400.91,194.41a8.4,8.4,0,0,1-2.31,2c-.94.52-.31.94-.31,1.14a21.75,21.75,0,0,1,.68,3.12,17.05,17.05,0,0,0,.73,4.21c.32.57.9,1,1,1.61a24.36,24.36,0,0,1,.52,3.93c-.1.72,2.1,1.85,2.63,2.36a6.94,6.94,0,0,1,1.1,2.55c.16.62-.84,2.7-1.1,3.42s-2.31,3.86-2.37,4.16a11,11,0,0,1-.36,1.93s-.38.18-.79.4l-.11.06a3.64,3.64,0,0,0-.84.47l-.06.06s-.05,0-.06.07c-.32.38-.79,1.32-1.14,1.74l0,0-.11.11-.16.13-.18.15c-.19.13-.37.27-.55.42a.08.08,0,0,1-.06,0c-.67.52-1.52,1.12-2.09,1.53l-.17.11a1.46,1.46,0,0,0-.21.16.91.91,0,0,0-.16.11l-.05,0s0,0-.05,0l0,0a.92.92,0,0,0-.16.15,14.89,14.89,0,0,0-1.34,1.3c-.29.3-.55.57-.74.75-.6.61-3.26,1-3.26,1l-.05,0c-.19.21-.93,1-1.21,1.29l-.06.06a10.9,10.9,0,0,1-2.93.61h-.23a5.61,5.61,0,0,0-2.49.31l-.17.11c-.79.57-.37.64-.48,1.08s-.69,2.39-1.12,3.83a.29.29,0,0,1,0,.09,8,8,0,0,0-.32,1.08,1.09,1.09,0,0,1-.7.69l-.21.08-.13,0a11.89,11.89,0,0,1-2,.21,9,9,0,0,0-1,.13,18,18,0,0,1-3.3.31h0a13.59,13.59,0,0,1-2.83-1.17c-.13-.07-.26-.16-.38-.24a13.68,13.68,0,0,1-2.26-2.47l0,0a11.29,11.29,0,0,0-1.53-1.95c-.66-.76-2.17-.35-2.45-.26a.35.35,0,0,1,0-.13,2.73,2.73,0,0,1,.06-.31c.14-.6.41-1.55.41-1.76v0a3.61,3.61,0,0,0-.23-.79c0-.07-.05-.14-.07-.2s0-.1-.08-.17a3.92,3.92,0,0,1-.29-1.13c0-.06,0-.12,0-.19a4.29,4.29,0,0,0,0-.89.4.4,0,0,0-.2-.37h0c-.28-.26-2.08.36-2.08.36s-1-.34-1.44-.53h0a0,0,0,0,1,0,0,6.32,6.32,0,0,1-1.32-1.07,3.41,3.41,0,0,1,.87-.51c.28-.14.28-.77,0-1.6a3.26,3.26,0,0,0-.7-1.09v0l-.27-.41.52-.93a1.9,1.9,0,0,0,.46-.81l.28-.65A10.18,10.18,0,0,0,359.9,223a30.7,30.7,0,0,0,0-3.33s.17-4.29,0-5.06.56-1.32,1.4-1.87.63-1.11.56-1.87-1.05-1.67-1.4-2a2.19,2.19,0,0,1-.56-1,3,3,0,0,1,.84-1.64,6.61,6.61,0,0,1,3.08,0c1.19.2.56-.9.62-1.11s-.62-2.08-.62-2.5.63-.69,1.06-.83,0-2.42,0-2.42.32-.52.64-.56h.1a14.9,14.9,0,0,0,4.17-1.19l.07,0a7.73,7.73,0,0,0,2.25-1.5h0l.4-.27,2.89-.23h0l.29,0h0a1.84,1.84,0,0,0,1.23-.69,7,7,0,0,1,1.91-.88l.87-.15H380a28.28,28.28,0,0,0,3.78-.66h.07l1.72-.3,1.79.57a4.33,4.33,0,0,0,1.25.4,3.84,3.84,0,0,0,1.35-.44l0,0,1.19-.39,1.14.23h0l.43.13a1.65,1.65,0,0,0,.65.05h.12l.57-.08,2.09-.34a12.12,12.12,0,0,1,2,.31,5.19,5.19,0,0,0,1,.07h0c.81,0,1.56-.19,1.56-.37A5.37,5.37,0,0,1,400.91,194.41Z"/><path class="cls-1" d="M362.73,238.36a6.65,6.65,0,0,0,.14-.79l.05,0c0,.11.17.22.44.26.65.11,1.38-.41,2,0,.32.37.9,1.15,1.53,1.95l0,0a9.6,9.6,0,0,0,1.8,2.22c.13.06.29.15.46.25s.25.17.38.24a11.05,11.05,0,0,0,1.84,1.12,5.58,5.58,0,0,0,1,.05h0c1.16.37,3.61-.39,4.3-.44a9.34,9.34,0,0,0,2-.21l.13,0a.9.9,0,0,0,.21-.08,1,1,0,0,0,.7-.69c.07-.25.19-.63.32-1.08a.29.29,0,0,0,0-.09,20,20,0,0,0,.92-2.68c.06-.39.12-.8.2-1.15a1.79,1.79,0,0,1,.48-1.08l.17-.11a5,5,0,0,1,2-.31h.46c1,0,2.63-.13,3.16-.62l.06-.06a12.62,12.62,0,0,0,1.21-1.29l.05,0s2.2,0,3.26-1c.19-.18.45-.45.74-.75.5-.49,1.06-1,1.34-1.3a.92.92,0,0,1,.16-.15l0,0s0,0,.05,0l.05,0,.16-.11.21-.16L395,230l.18-.12a12,12,0,0,0,1.91-1.41.08.08,0,0,0,.06,0c.21-.15.39-.29.55-.42l.18-.15.16-.13a1.11,1.11,0,0,1,.11-.11l0,0a5.26,5.26,0,0,0,1.1-1.66l0-.08s0,0,.06-.07l.06-.06c.14-.1.49-.28.84-.47l.11-.06a3.55,3.55,0,0,0,.79-.4c.94-.21,1.25-.31,1.89.52s.34,1.66,2,2,2.34-.22,2.54.51-.73,1.67,0,2.19,2.53,1.12,3.37,1.91,2,2.66,2.31,2.76.95-.52,1.89,0,3.36,1.66,4.1,2.08,1.78,1.56,1.68,2.39-1.26,1.35-.95,2.4a14.23,14.23,0,0,0,.95,2.69c.62,1.35,1.36,3.64.73,4.16s-1.79.31-1.26,1.35,1.89,4.26.31,3.69a7.85,7.85,0,0,0-3.57-.57c-.84.11-4.09-.08-4.62.64a5.8,5.8,0,0,1-2.62,2.06c-.95.21-3.36.11-3.67.63a2.9,2.9,0,0,1-2.42.83,12.07,12.07,0,0,0-2.62,0c-.95.08-1.37.08-1.79.92s-1.58.72-1.68,2,.1,2.08,0,2.81.84,1,.84,1.76a3.34,3.34,0,0,1-.42,2.19c-.52.72-.63,1.87-1.36,1.87s-1.05.31-1.89.62-2.11-1-2.42,0-1,2-1.47,2.08-3.67.31-4.09,0-2.84.17-2.84.17.63,1.08,0,1.6-1.36.41-1.05,1.25,1.16,1.66.74,2.49-1.37.52-1.79.52-.42.83-1.16.93a3.8,3.8,0,0,1-1.89-.62s-1-.5-1.15.63-1.78,2.49-1.78,2.49a9.8,9.8,0,0,0-1.37,2.08c-.31.83-1.36.87-1.47,2s-1,1.44,0,1.75a21.21,21.21,0,0,1,2.73,1,8.9,8.9,0,0,1,1.47,1.77s-.21,3.11.21,3.53,2,.11,2,.63.53,1.66,1.16,1.66a4.48,4.48,0,0,1,2.15.52c.17.26,1.16.41,1,1.09a13.19,13.19,0,0,1-1.3,4c-.79,1.35-1,5-1,5.82s-.68,4.57-.68,5-.89,5.24-1.1,6.18-1.1,3.53-1.31,4.47a23.46,23.46,0,0,0-.48,2.44c0,.32,0-.41-.94-.77s-2.41-1.09-3.05-1.25a6.42,6.42,0,0,0-2.25-.36,27.61,27.61,0,0,1-5.15-.63A13.06,13.06,0,0,1,362,319.2c-.52-.52-1.37-.73-1.46-1.61s0-2.34,0-3.49.26-2.34-.79-3.17a10.11,10.11,0,0,0-2.89-1.92c-.84-.21-1.89-.21-1.89-1.19s.37-1.93,0-2.66-1.57-2.23-1.68-3.63.16-6.66,0-8.26.42-6.87.42-7.91a5.73,5.73,0,0,0-.44-2.65c-.35-.47-.77-1.19-.77-1.19a5.51,5.51,0,0,1,.81-.37l.1,0a4.71,4.71,0,0,1,1.63,0h.06a17.09,17.09,0,0,1,2.52,1.15l0,0c1.74,1.29,2.42,2,2.81,2.31l.14.09a.3.3,0,0,0,.15,0,1.64,1.64,0,0,0,1.55-.53,5.14,5.14,0,0,0,.67-1.44c0-.09.08-.21.12-.32a22.27,22.27,0,0,0,.83-3.1,52.15,52.15,0,0,0,.1-6.1c.05-.88.07-1.47.06-1.53s-.19-1.53-.38-2.85v0a5.75,5.75,0,0,0-.17-1.65l-.09-.24c0-.21-.06-.38-.08-.49-.09-.55-.41-1.09-.57-1.8,0-.37,0-.88,0-1.36a5.66,5.66,0,0,0,0-1.53c0-.91-.12-2.28-.12-2.76.38-.75,1-.61,1.11-2.37s.09-3.16-.34-3.72a7.65,7.65,0,0,0-2.53-2.15c.23-.64.41-2.24.59-3.13,0,0,0,0,0-.06a1.19,1.19,0,0,0,.11-.42c.23-.57,1.07-1.43,1.19-2,.27-.43.08-2.26-.11-3.45,0-.09,0-.16,0-.22a13.65,13.65,0,0,1,.09-2.86s0-.08,0-.11a1,1,0,0,0,0-.14A.07.07,0,0,1,362.73,238.36Z"/><path class="cls-1" d="M359.3,249.1a2.59,2.59,0,0,0,1.52.27c-.08.12-.66,1.11,0,1.44-.29.77,2.1,1.58,2.53,2.15.14.48-.07,2.69,0,3.25s.35,1.31,0,1.73-.77.49-.77,1.11c-.26.5,0,1.63.12,2.76,0,.26,0,.48,0,.64s0,.55,0,.89v0a4.07,4.07,0,0,0,0,1.32c0,.12,0,.22,0,.31a7.71,7.71,0,0,0,.64,2c.07.48.17,1.18.26,1.89v0a21.47,21.47,0,0,0,.22,3.8,4.24,4.24,0,0,1,.1.58,72.23,72.23,0,0,1-.93,9.2c0,.11-.08.23-.12.32a2.73,2.73,0,0,1-2.22,2,.3.3,0,0,1-.15,0l-.14-.09a.67.67,0,0,1-.14-.15,8.33,8.33,0,0,0-2-1.84c-.11,0-.36-.16-.68-.32l0,0a6.19,6.19,0,0,0-2.52-1.15h-.06a2.37,2.37,0,0,0-.68-.13,4.52,4.52,0,0,0-.95.12l-.1,0c-.41.08-.63.11-.74-.24-.18-.59-.41-3.74-.49-4.4s-.53-2-.59-2.43.17-1.45,0-1.55a2.6,2.6,0,0,0-1.75.41c-.84.45-3.57,1.77-4.83,2.6s-1.69,2.53-3.47,2.29a7.72,7.72,0,0,1-3.46-1.32c-.7-.45-1.05-1.52-2.21-1.56s-3.49.24-3.95,0a8.33,8.33,0,0,1-1.47-2.38,1.6,1.6,0,0,1,.48-.25,5.62,5.62,0,0,0,1.37-.35c.31-.13.91-.45,1.55-.81h0a7.48,7.48,0,0,0,2.72-1.49c.71-.64,1.29-1.62,2-2.39a1.32,1.32,0,0,0,.35-1.08.25.25,0,0,0,0-.09,12.57,12.57,0,0,1-.41-2.12c.52-.73,1.61-2.75,1.87-3.24,0,0,0,0,0-.06.2-.31.3-.55.26-.69a10.37,10.37,0,0,1,0-1.57c0-.46,0-.91,0-1.27s0-.67,0-.93v0c.07-.63.62-4.29.8-5.07a14.18,14.18,0,0,1,.61-1.9l0,0c.28-.5.64-1.13.87-1.47a3.53,3.53,0,0,1,1.44-.21,3.9,3.9,0,0,0,.81,0h.1a6.45,6.45,0,0,1,2.44.35h0a14.15,14.15,0,0,1,1.49.79h0a6.17,6.17,0,0,0,3.24,1.32,1.93,1.93,0,0,0,.93,0c.27-.12.66-.25,1.1-.39l.1,0,.38-.11.45-.13a.74.74,0,0,1,.19-.05A8.82,8.82,0,0,1,359,249,1.7,1.7,0,0,1,359.3,249.1Z"/><path class="cls-1" d="M360.49,249.35a7.36,7.36,0,0,1-1.19-.25,1.7,1.7,0,0,0-.32-.1,2.1,2.1,0,0,0-.51-.14,5.7,5.7,0,0,0-2.11.07l-.72.21a.74.74,0,0,0-.19.05l-.45.13-.38.11-.1,0a11,11,0,0,1-1.94.45h-.09a7.54,7.54,0,0,1-2.64-1l-.6-.36h0a5.51,5.51,0,0,0-1.49-.79h0a3.91,3.91,0,0,0-2.26-.37l-.18,0h-.1c-.2,0-.5,0-.81,0-.76,0-1.14-.24-1.44.21a3.55,3.55,0,0,0-.87,1.47l0,0c-.21.4-.37.7-.37.73s-.1.49-.24,1.17a41.13,41.13,0,0,0-.83,4.49,3.73,3.73,0,0,1,0,.58v0a.21.21,0,0,0,0,.06c0,.06,0,.4,0,.87s0,.81,0,1.27a11.64,11.64,0,0,1-.22,2.26s0,0,0,.06a20.23,20.23,0,0,0-1.8,2.86,1.59,1.59,0,0,0-.07.38c-.53.73.24,1.38.41,2.12a.25.25,0,0,1,0,.09c0,.79-2,2.67-2.37,3.47a2.72,2.72,0,0,1-.77.51c-.56.25-1.29.63-2,1h0c-1.12.46-2.29.9-2.92,1.16l-.52.08s-.9-1.67-1.32-2.71a20.7,20.7,0,0,0-1.55-2.84,10.18,10.18,0,0,1-.9-2,12,12,0,0,0-1.55-2.15,3.32,3.32,0,0,0-2,.14,8.81,8.81,0,0,1-3.71.49c-.28-.21,0-1.25-1.75-.69s-1.46,1.1-2.52.75-.7-.89-2.09-1-5.68-.63-5.68-.63l-1.18-.56a2.75,2.75,0,0,1-.48-1.52c.06-.76.76-6.93.76-7.55v-1.73s.27-.2.66-.52a1.57,1.57,0,0,0,.24,0,5.91,5.91,0,0,0,1.84-1.78h0c.76-.74,1.34-1.45,1.25-1.84h0c.33-1,.54-3.1,1.16-5.65a6,6,0,0,1,.57-1.49,3.84,3.84,0,0,0,.88-1.18,3.92,3.92,0,0,1,1.63-1,28.72,28.72,0,0,1,4.35-1.31,21.25,21.25,0,0,0,3.53-1l0,0a3.89,3.89,0,0,0,.76-.28s0,0,0,0l.39-.15c.84-.35,6.44-5.48,7.21-6a22.93,22.93,0,0,0,2.06-2.31l.07-.06s.09-.13.17-.22c1.45-1.74,3.2-3.91,4.23-5.13a.31.31,0,0,1,.09-.11c.15-.17.33-.37.49-.57l.07-.09.17-.17c.57-.48,1.89-2.14,2.17-2.42s.14-.74.09-1.32h0v0c0-.41.54-2.87.54-2.87a33.74,33.74,0,0,1,4.83.55c.56.14-.48.63.56,1.18a9.6,9.6,0,0,0,2.45,1.11c.56.07-.56.21.63.9s2,.35,2.38.7.35,1.45.35,1.79.77.7,1.47.7.84.07,1.27.7.34,1,.76,1.52.77.28,1.33.76a5.51,5.51,0,0,1,1.4,2.28l-.46.81c-.27.37-.56.74-.52.93a1,1,0,0,0,.27.41v0l.7,1.09v1.6s-1,.14-1,.35a.5.5,0,0,0,.11.16c-.16.15-.19.32.1.46s.73.38,1.22.61a0,0,0,0,0,0,0h0a5.83,5.83,0,0,0,1.44.53.89.89,0,0,0,.4,0c.48-.14,1.29-.54,1.68-.36h0l0,0a2.86,2.86,0,0,1,.15,1.23c0,.07,0,.13,0,.19,0,.35-.06.62.05.73a1.58,1.58,0,0,1,.24.4c0,.07.06.13.08.17s0,.13.07.2c.09.28.2.68.23.79v0l-.41,1.76,0,.14a.37.37,0,0,0,0,.17,1.25,1.25,0,0,0,0,.15l-.14.79a.07.07,0,0,0,0,0,.56.56,0,0,0,0,.12v0s0,.07,0,.11a6.2,6.2,0,0,0-.22,2.24,5.33,5.33,0,0,1,.13.62c0,.06,0,.13,0,.22a18.07,18.07,0,0,1,.11,3.45c-.35.55-1.19,1.59-1.19,2a3,3,0,0,0-.11.42s0,0,0,.06c-.22.5-.58,1.11-.58,1.11S361.62,249.49,360.49,249.35Z"/><path class="cls-1" d="M359.9,223a10.18,10.18,0,0,1-1.09,1.28l-.28.65a5.51,5.51,0,0,0-1.4-2.28c-.56-.48-.91-.21-1.33-.76s-.35-.9-.76-1.52-.57-.7-1.27-.7-1.47-.35-1.47-.7,0-1.44-.35-1.79-1.19,0-2.38-.7-.07-.83-.63-.9a9.6,9.6,0,0,1-2.45-1.11c-1-.55,0-1-.56-1.18a33.74,33.74,0,0,0-4.83-.55s-.54,2.46-.54,2.87c0-.44-.09-.86-.09-1.06,0-.49-.07-1.4-.35-1.6a4.06,4.06,0,0,0-2.38.34,12.9,12.9,0,0,1-2.3,1.6c-.64.27-1-.21-1.9-.76s-1.05-.07-2.31,0a1.74,1.74,0,0,1-1.61-.55,10.23,10.23,0,0,0-2.66-1h-2.64a2.82,2.82,0,0,0,.12-.83c0-1.39-.9-2-.84-2.84a3.36,3.36,0,0,1,.84-2.15,4.37,4.37,0,0,0,1.27-2.49c-.08-.7-1.28-1.4-1.48-2.12a5.83,5.83,0,0,0,2.73,1c.91-.21,1.61-1.66,1.9-2.19s.7-.24,1.53,0,.49-.9.49-1.11,1.27-1.25,1.61-1,1.89.07,1.89-.34a9.29,9.29,0,0,1,.07-2c.14-.28,1.33,0,1.33,0a13.09,13.09,0,0,0,2,.25,6.5,6.5,0,0,0,1.4-1.64c.49-.83,2.1-1.25,2.67-1.32a8.89,8.89,0,0,1,3,.42c.57.28.85,1.6,1.33,2.15s4.62,2.43,8.47,3,4.13-.2,9.45-.55c.5,0,1-.08,1.42-.14-.32,0-.64.56-.64.56s.41,2.28,0,2.42-1.06.42-1.06.83.68,2.29.62,2.5.57,1.31-.62,1.11a6.61,6.61,0,0,0-3.08,0,3,3,0,0,0-.84,1.64,2.19,2.19,0,0,0,.56,1c.35.34,1.33,1.25,1.4,2s.28,1.31-.56,1.87-1.55,1.11-1.4,1.87,0,5.06,0,5.06A30.7,30.7,0,0,1,359.9,223Z"/><path class="cls-1" d="M362.91,159.26a11.22,11.22,0,0,1,2.27-1.07h0l.38-.07.26-.05.23,0h0a7.53,7.53,0,0,0-.56,2c-.07.9-.35,1.73.28,2.15a4.9,4.9,0,0,1,1.61,1.52,18.67,18.67,0,0,0,.91,2,7.86,7.86,0,0,0,2.52,1c.49.14,2.17,1,2.31,1.74s-.35,1.86,0,2.63.28,1.32.91.69,1.33-1.66,2-2.43-.07-1,1.47-1a32.74,32.74,0,0,0,5.32-.08c1.05-.27,2.24-.27,2.87-.79a12.35,12.35,0,0,1,2.94-1.91,37.44,37.44,0,0,0,3.64-1.23,39.13,39.13,0,0,1,3.92-2.3,21.71,21.71,0,0,1,2,3c.56,1,1.26,2.23,2.38,2.4s1.75-.52,1.82.73-.56,2.14,0,2.69,1.4,2,1.82,2.5a9.33,9.33,0,0,1,1.47,2.71c0,.41-.63,1.73-.63,2.15s-.21,1.45-.21,2,.35,1.25.07,1.53-1.33.42-1.75,1a15.39,15.39,0,0,0-1.12,2c-.14.28-1.12,1.17-1.05,1.66s-.49.42-1,.69a7.24,7.24,0,0,0-2,1.53l-.91,1.59a8.59,8.59,0,0,1,1.26.63c.42.28.56,1.11.77,1.31s1.54.49,1.68.77l-1.56.4h0l-2.81-.41-.21,0a2.66,2.66,0,0,0-.7,0c-.35.07-.87.21-1.39.31l-.57.08h-.12l-1.08-.18h0a3.33,3.33,0,0,0-1.56-.21l-.77.37,0,0-1.35.44-1.25-.4a6.66,6.66,0,0,0-1.79-.57,12.32,12.32,0,0,0-1.72.3h-.07l-3.94.67a5.41,5.41,0,0,0-2.78,1,4.23,4.23,0,0,1-1.23.69h0l-.29,0h0c-.86,0-2.83,0-3.19.39l-.1.11h0c-.66.44-1.92,1.3-2.25,1.5l-.07,0c-.19.09-3.52,1-4.17,1.19h-.1c-.45.06-.92.11-1.42.14-5.32.35-5.6,1.18-9.45.55s-8-2.49-8.47-3-.76-1.87-1.33-2.15a8.89,8.89,0,0,0-3-.42c-.57.07-2.18.49-2.67,1.32a6.5,6.5,0,0,1-1.4,1.64,13.09,13.09,0,0,1-2-.25.11.11,0,0,0,0,0,18.48,18.48,0,0,0,1.59-3c0-.35.26-1.36.37-2.22a0,0,0,0,0,0,0c.1-.41.13-.7,0-.79a.24.24,0,0,0-.09-.08s0,0,0,0c-.23-.45-.8-.59-1-1a3.61,3.61,0,0,0-.91-.93,10.58,10.58,0,0,0-.73-1.29c0-.46.17-1,.17-1.17.64-.58,1.11-.74,1.43-1.26h0a.77.77,0,0,0,.17-.26,1.4,1.4,0,0,0,.1-.39s0,0,0,0a5.38,5.38,0,0,0,.16-.8q.06-.16.15-.36a2.78,2.78,0,0,0,0-2c-.05-.18-.34-.11-.65,0h0c-.51,0-1.13,0-1.09,0s1-.74,1.65-1.26.66-1.18.91-1.59.53-.21,1.18-.45,1.23-.18,1.37-1.77,0-2.15.14-2.6,0-.77.08-1a1.5,1.5,0,0,0,1.33-.22c1.06-.6,6.38-3,7.78-3.74l0,0h0a50.07,50.07,0,0,0,5.49-2.38,8,8,0,0,0,.74-1.42c.11-.17.2-.33.27-.45a10.33,10.33,0,0,1,1.39-1.71h0a.85.85,0,0,0,.57-.51c.1-.05.11-.32.18-.66,0,0,0-.05,0-.06a3,3,0,0,1,.3-.7l.09-.12a1.48,1.48,0,0,1,.44-.3h0C360.24,159.68,362.48,159.67,362.91,159.26Z"/><path class="cls-1" d="M349.94,168.19c-.63.28-8.64,3.79-8.94,3.79-.09,0-.14.07-.17.17-.24-.1-.32-.24-.29-.22s-.84-2.76-1.67-2.82a8.54,8.54,0,0,1-2.18-.69,12.86,12.86,0,0,0,.77-2.42,11.09,11.09,0,0,0-.7-2.92c-.28-.56-1.4.48-1.89,1.19s-.7.47-.56-.36-.63-1.39-1.46-1.39a4.44,4.44,0,0,1-1.9-.76c-.35-.13-4.62-3.11-4.9-3.39s0-1.12,0-1.67-1.19-.48-1.47-.76-2.44.21-2.52,0a12.51,12.51,0,0,0-1.95-2.22,9.58,9.58,0,0,0-2.73-1.25c-.84-.2.55-1.52.62-1.79s-.35-.7-.56-1.32-2-1.05-2.5-1.31a10.05,10.05,0,0,0-3.24,0c-.62.07-2.1-1-2.71-1.53s-1.2-.89-1.2-.89-1.12-1.32-1.68-2-1-.55-1.34-.75-1.11-.77-1.19-1.32-.34-.35-1-.56-.5-.27-.78-.76.21-.9,0-1a11.52,11.52,0,0,1-1.47-1.25,2.25,2.25,0,0,1-.48-.9c-.08-.35-.28-1.1-.63-1.24s-.07-1.18,0-1.46-.63-1-.83-1.32a7,7,0,0,1,0-2.06h0a4.44,4.44,0,0,0,.4-2.06v0c0-.12,0-.22,0-.28a6.82,6.82,0,0,0-.42-.76,0,0,0,0,1,0,0c-.23-.44-.49-.89-.58-1.1a0,0,0,0,1,0,0h0a1,1,0,0,1,0-.24v-.14a.08.08,0,0,1,0,0,9.3,9.3,0,0,0,.14-1.69v0a9.64,9.64,0,0,1,.26-1.32,5.47,5.47,0,0,1,.59-1.11l.15-.21,1.86-2.2,0,0,.17-.15a10.76,10.76,0,0,0,1.74-1.52l.05-.11a3.46,3.46,0,0,0,.15-.68,1.38,1.38,0,0,1,0-.2c.08-.49.18-1,.24-1.25l0-.07,0,0,.05-.11A15,15,0,0,0,304,114a1.09,1.09,0,0,0,.07-.32,9.8,9.8,0,0,1,.09-1.54,3.91,3.91,0,0,1,.53-1.34s0,0,0,0a4.55,4.55,0,0,0,.41-.56h0a.34.34,0,0,0,0-.11V110l.44-1.12,0-.09c0-.11.1-.24.15-.37h0c.18-.4.35-.82.49-1.18,0,0,0,0,0-.08l.43-1,.08-.13c.37-.6.84-1.08,1-1.41a5.35,5.35,0,0,0,.25-.61l0-.13a19.81,19.81,0,0,0,.87-3.11l1.87-.87a18.28,18.28,0,0,1,2.17,0c.78.06,2.87,2,3.71,2.41s.7.08,1.75,0,2-.62,4.35-1,2,1.6,2.16,2.15.85.76,2.31.76a2.89,2.89,0,0,0,2.17-.83,27.87,27.87,0,0,1,3.23-.83,3.72,3.72,0,0,1,2.37.48c.36.14.28,1.18.42,1.53a16.21,16.21,0,0,0,1.47,1.52c.21.28.07,1.52.14,2s1.33,1.17,2.38,2.21.14,2.37.21,3.2.91.89,2.1,1.31,2.8.62,4.34,1.25,0,2.14.28,2.42.28.55.35,1.11a34.12,34.12,0,0,1,.28,4c-.07.83-.7,1.18-2,3.12s-.77,1.66-.77,2.36a10.55,10.55,0,0,1-1.19,3,3.13,3.13,0,0,0-.28,1.73c0,.7,1.19,2,1.26,2.84a15.48,15.48,0,0,1-1,3.82c-.21.55.7,1,.91,1.24s2.87,3.06,3.29,3.75a9.51,9.51,0,0,0,1.68,2.07c.35.22,4.34,4.38,5.81,4.72s1.33-.63,1.75-.58a12.63,12.63,0,0,0,3.15-1.08c.84-.42,2.8.2,2.8.2s.49,2.78.63,3.75,2.84,3.37,3,3.53l-.23,0a1.66,1.66,0,0,0-.26.05l-.38.07h0a6,6,0,0,0-1.26.38,8.93,8.93,0,0,1-3.71,1.11,1.94,1.94,0,0,0-.7.17h0a.75.75,0,0,0-.44.3l-.09.12a1.59,1.59,0,0,0-.3.7s0,0,0,.06c-.09.26-.14.51-.18.66a2.87,2.87,0,0,0-.57.51h0a1.61,1.61,0,0,1-.48.08c-.25,0-.75,1.1-1.18,2.08a7,7,0,0,1-1.48,1.64c-.49.28-4.06,1.65-4.48,2a1.86,1.86,0,0,1-.27.16h0Z"/><path class="cls-1" d="M310.83,223.24a.65.65,0,0,0-.82,0,1.3,1.3,0,0,0-.6.55,3.84,3.84,0,0,1-2.21.47h-.83a28.1,28.1,0,0,1-4.49-.23,3.6,3.6,0,0,0-1.29-1.28.62.62,0,0,0-.29-.07h0c-.32-.08-2.69.28-3.26.18h0a3.11,3.11,0,0,1-.33-.15h0l-.24-.13-.14-.08a33.26,33.26,0,0,0-2.84-1.83l-.11,0,0,0a5.54,5.54,0,0,1-.66-.47h0c-.25-.28-.41-.62-.67-.94a.87.87,0,0,0-1-.28h0c-.5,0-.56-.87-.56-.87h0s.14-.23.25-.46l0,0c.22-.34.51-.71.56-.8s-.32-.49-.44-.4a2.63,2.63,0,0,0,.54-.53,2.71,2.71,0,0,0,.11-1.52l0-.51-.29-1.09a7.66,7.66,0,0,0-.33-1.21v0l-.45-1.67h0a14.17,14.17,0,0,0,1.8,0c.7-.07,3.22-.28,4-.42s.84-.83,1.4-1.65a1.79,1.79,0,0,1,1.61-.84,5.59,5.59,0,0,1,1.54.21l1.26-1s.57.69,1.33,1.45,1.4-1.73,1.89-1.93,1.2-.56,1.06-.83a3.34,3.34,0,0,1,0-1.88,3.94,3.94,0,0,0,.84-1.66c.06-.63.06-1.32.42-1.39s1-1.17,1-1.8c0,0,.56-.17,1-.36h0a13,13,0,0,0,1.34-.32,4.49,4.49,0,0,1,1.16-.14h.08c.53,0,3.69.54,4.36.14a4.45,4.45,0,0,1,2.37-.58l.32,0a1.23,1.23,0,0,1,.25,0,9.41,9.41,0,0,1,1.91.71h0c.15.13.16.26.31.6s.74,1.5,1,2.23c.08.26.16.5.22.68a.16.16,0,0,0,0,.09v0a.75.75,0,0,0,.53.46h0a7,7,0,0,0,.75.48h0c.2.72,1.4,1.42,1.48,2.12a4.37,4.37,0,0,1-1.27,2.49,3.36,3.36,0,0,0-.84,2.15c-.06.83.84,1.45.84,2.84a2.82,2.82,0,0,1-.12.83h-.58s0,.68-.05.79-.22.6-.36,1.14a7.27,7.27,0,0,0-.36.65c-.92,1-3.7,3.26-5.08,4.37l-.05.05-1,.75c-.49.29-1.53.86-2,1.2s-1,1-1.67,1.59c-.53.4-1,.71-1.17.83C311.4,224.12,311.54,223.49,310.83,223.24Z"/><path class="cls-1" d="M309.41,223.83a4.34,4.34,0,0,1,.6-.55,1,1,0,0,1,.82,0c.51.35.61,1.1,1.23.75a3.48,3.48,0,0,0,1.17-.83c1.08-.8,2.6-2,3.59-2.76l0,0,.24-.15s.3-.25.74-.6l.05-.05c1.85-1.41,4.72-3.61,5.08-4.37a1.11,1.11,0,0,0,.3-.41,2.1,2.1,0,0,1,.06-.24,8.35,8.35,0,0,0,1-1.93H327a10.23,10.23,0,0,1,2.66,1,1.74,1.74,0,0,0,1.61.55c1.26-.07,1.4-.55,2.31,0s1.26,1,1.9.76a12.9,12.9,0,0,0,2.3-1.6,4.06,4.06,0,0,1,2.38-.34c.28.2.35,1.11.35,1.6,0,.2,0,.62.09,1.06v0h0a17.62,17.62,0,0,1-2.43,3.91l-.07.09c-.13.15-.3.33-.49.57a.31.31,0,0,0-.09.11c-1.2,1.31-3.49,4.21-4.23,5.13-.08.09-.13.17-.17.22l-.07.06c-.87.91-8.83,8.07-9.61,8.48l0,0s0,0,0,0l-.76.28,0,0A46,46,0,0,1,316,236a4,4,0,0,0-3,1.91,5.11,5.11,0,0,0-.88,1.18c-.83.53-2,6.13-1.73,7.14h0a1.74,1.74,0,0,1-.24.51c-.2.25-.57.78-1,1.33h0a26.65,26.65,0,0,1-2.08,1.81,11.89,11.89,0,0,1-3.19-.73c-.62-.21-7-2-7.28-2.08s-.76-.06-.76.69a14.44,14.44,0,0,1-.63,3.4,7.33,7.33,0,0,1-2.32,1.45,26.93,26.93,0,0,1-3.85.84c-.35-.14,0-.48,0-1.11s-.27-1-.63-1-.48-.83-.48-1.25.2-.9-.56-.9-1.4,0-1.89-.62-2.38-3.67-3.37-4.37-2.72-1.73-2.72-2.84a6.81,6.81,0,0,0-1.13-3.53c-.56-.63-2.08-2-2.4-2.5a12.26,12.26,0,0,0-1.48-1.45,7.32,7.32,0,0,0-.29-2.1s0,0,0-.07a0,0,0,0,1,0,0,2.68,2.68,0,0,0-.25-.59c-.42-.69-.8-.93-1.08-1.52a21.79,21.79,0,0,0-.64-2.15l-.15-.26v0a.45.45,0,0,0-.05-.09,0,0,0,0,0,0,0c-.26-.53-.62-1.26-.85-1.87a1.87,1.87,0,0,1-.07-.22,2.14,2.14,0,0,1-.15-.72c0-.43-.07-.72-.06-1.06h0c.07-.23.16-.56.27-.94a.11.11,0,0,1,0-.05c.31-.87.74-2.41.83-2.79.05-.23.21-.8.3-1.46a.06.06,0,0,1,0,0h0a4.94,4.94,0,0,0,0-1.88c-.09-.32-.19-.64-.29-.92a0,0,0,0,1,0,0,6.15,6.15,0,0,0-.64-1.66l.15-.3a2.55,2.55,0,0,0,.6-1.13.05.05,0,0,1,0,0,1.87,1.87,0,0,0,.29-.39h0a2.28,2.28,0,0,1,.42-.39h0a6.27,6.27,0,0,1,1.09-.33c.61,0,1.52-.18,2.41-.26.43,0,.87.09,1.35.13a3,3,0,0,1,1,.25,20.8,20.8,0,0,0,2.4,1.7c.05,0,.07.05.08.05h0a2.52,2.52,0,0,0,.72.23,9.86,9.86,0,0,0,1.81.12h0l.64.08h0l1,1c.14.18.29.37.44.53a4.76,4.76,0,0,0,.46.43,3.83,3.83,0,0,0,1.29.77c.1,0,.28.08.49.15l.58.22a6.55,6.55,0,0,0,1.5.38,1.25,1.25,0,0,0,.69-.14l.06,0c.26.24.07.79-.12,1.2l0,0a1.53,1.53,0,0,0-.25.46h0c-.06.26-.19.93.18.93a2,2,0,0,0,.38-.06h0c.53,0,1.44,1,1.66,1.22h0a1.58,1.58,0,0,0,.66.47l0,0c.8.54,2.11,1.4,2.95,1.87l.14.08.24.13h0a2.4,2.4,0,0,0,.33.15h0a1.36,1.36,0,0,0,.53.11c.91,0,2.11-.35,2.75-.28.31.13.81,1.12,1.58,1.35,0,.18,1.1.28,1.76.28a7,7,0,0,0,2,0,5.22,5.22,0,0,1,.91-.08h.66a13.14,13.14,0,0,0,1.42,0C309.2,224.22,309.28,224.12,309.41,223.83Z"/><path class="cls-1" d="M308,197.38a10.07,10.07,0,0,1-2.36-3.15c-.06-.11.11-.48.41-1l.91-.81a39.11,39.11,0,0,1,2.59-4.29,18.53,18.53,0,0,0,1.49-2.36l0,0,.05-.09c.79-1.36,1.57-2.83,1.73-3.22a28.31,28.31,0,0,1,1.33-2.65,8.14,8.14,0,0,1,.48-.74,5.37,5.37,0,0,0,.23-2.79h0c.05-.4.07-.67.07-.67,2.22,1,3.69,1.94,4.39,1.94a11.59,11.59,0,0,0,2.95-.56,6.46,6.46,0,0,1,2.51-.41c.78.07,1.4,1.11,1.76,1s2.09-1.37,2.93-1,2.17,1.38,2.1,2.07-.55,1.66,0,1.87a8.71,8.71,0,0,0,1.74.36c.49,0,2.45.52,2.45.52a7.37,7.37,0,0,1,.81-.48h0l.65,0a20.47,20.47,0,0,1-.15,2.36,4.7,4.7,0,0,0-.16.8s0,0,0,0a2.49,2.49,0,0,1-.27.65h0c-.44.47-1.43,1-1.43,1.26a.85.85,0,0,0-.17,1.17,1.16,1.16,0,0,0,.1.7,3.7,3.7,0,0,0,.63.59c.33.87,1.44,1.48,1.93,1.94,0,0,0,0,0,0a.76.76,0,0,1,.09.49c0,.13,0,.25,0,.38a0,0,0,0,1,0,0,47.14,47.14,0,0,1-2,5.24.11.11,0,0,1,0,0s-1.19-.28-1.33,0a9.29,9.29,0,0,0-.07,2c0,.41-1.53.62-1.89.34s-1.61.77-1.61,1,.35,1.32-.49,1.11-1.25-.5-1.53,0-1,2-1.9,2.19a5.83,5.83,0,0,1-2.73-1h0c-.13-.41-.45-.39-.75-.48h0a2.72,2.72,0,0,1-.53-.46v0a.92.92,0,0,0,0-.09,2.48,2.48,0,0,0-.22-.68c-.3-1-.73-2.5-1.35-2.83h0a4.4,4.4,0,0,0-.78-.39,5.25,5.25,0,0,0-1.13-.32,2.21,2.21,0,0,0-.25,0l-.32,0a4.33,4.33,0,0,0-1.39,0,9.76,9.76,0,0,1-2.5.56c-.85.05-1.85-.14-2.84-.14H312c-.39,0-1.59-.11-1.86.14a2.33,2.33,0,0,1-.64.32h0A2,2,0,0,1,308,197.38Z"/><path class="cls-1" d="M306,193.2c-.3.55-.47.92-.41,1a10.07,10.07,0,0,0,2.36,3.15,2,2,0,0,0,1.52.33c-.47.19-1,.36-1,.36,0,.63-.63,1.73-1,1.8s-.36.76-.42,1.39a3.94,3.94,0,0,1-.84,1.66,3.34,3.34,0,0,0,0,1.88c.14.27-.56.61-1.06.83s-1.11,2.7-1.89,1.93-1.33-1.45-1.33-1.45l-1.26,1a5.59,5.59,0,0,0-1.54-.21,1.79,1.79,0,0,0-1.61.84c-.56.82-.62,1.51-1.4,1.65s-3.29.35-4,.42a14.17,14.17,0,0,1-1.8,0,3.3,3.3,0,0,0-.14-.76,33.28,33.28,0,0,0-1.45-3.2c-.47-.65.5-1.51.74-2s-.06-.62-.24-.83-2.62-1.79-3-2.25-.42-1.8-1-2.58c-.42-.6-.46-2.36-.45-3.49a17.12,17.12,0,0,0,.36,2.57c.3.75,2.45-1.29,2.73-2.09a3.16,3.16,0,0,1,1.53-2.18,3.39,3.39,0,0,1,2.73-.06c.42.34,1.4.83,1.54.55s1.34-1.94,2-2.84,2.1-.35,2.1-1.25a7.85,7.85,0,0,1,1.33-3.47c.56-.69,1-.62,2.45-1.66s1.9.42,2.6,1.6-.7,2.29-1.54,3.6-1.47,1.94-1.47,2.5.41,2.49,1.53,2.32a28.36,28.36,0,0,0,2.89-.66Z"/><path class="cls-1" d="M296.34,134.86a38.63,38.63,0,0,0,2-3.85,7,7,0,0,0,0,2.06c.2.35.91,1,.83,1.32s-.33,1.32,0,1.46.55.89.63,1.24a2.25,2.25,0,0,0,.48.9,11.52,11.52,0,0,0,1.47,1.25c.21.14-.27.56,0,1s.07.55.78.76,1,0,1,.56.84,1.1,1.19,1.32.77.13,1.34.75,1.68,2,1.68,2,.6.41,1.2.89,2.09,1.6,2.71,1.53a10.05,10.05,0,0,1,3.24,0c.54.26,2.3.69,2.5,1.31s.63,1,.56,1.32-1.46,1.59-.62,1.79a9.58,9.58,0,0,1,2.73,1.25,12.51,12.51,0,0,1,1.95,2.22c.08.21,2.24-.27,2.52,0s1.47.21,1.47.76-.28,1.38,0,1.67,4.55,3.26,4.9,3.39a4.44,4.44,0,0,0,1.9.76c.83,0,1.6.56,1.46,1.39s.07,1.06.56.36,1.61-1.75,1.89-1.19a11.09,11.09,0,0,1,.7,2.92,12.86,12.86,0,0,1-.77,2.42,8.54,8.54,0,0,0,2.18.69c.83.06,1.74,2.88,1.67,2.82s0,.12.29.22c-.07.24,0,.7-.08,1s0,1-.14,2.6-.7,1.52-1.37,1.77-.94,0-1.18.45-.25,1.07-.91,1.59-1.57,1.11-1.65,1.26.58.06,1.09,0a7.37,7.37,0,0,0-.81.48s-2-.47-2.45-.52a8.71,8.71,0,0,1-1.74-.36c-.56-.21-.08-1.18,0-1.87s-1.26-1.67-2.1-2.07-2.59.82-2.93,1-1-.9-1.76-1a6.46,6.46,0,0,0-2.51.41,11.59,11.59,0,0,1-2.95.56c-.7,0-2.17-1-4.39-1.94,0,0,0,.27-.07.67a2.48,2.48,0,0,0-.23-1c-.28-.35-2.8-2.29-3.36-2.78s-3.35-2.84-4-3.46a7.22,7.22,0,0,0-2.45-1.56c-.84-.31-2.87.66-4.13.93a25.14,25.14,0,0,1-3.63.22c-.84.06-1.83-1.19-2.53-2.56a8.23,8.23,0,0,1-.75-1.73h0l1.07-1.3s-.37-2-.47-2.49a19.41,19.41,0,0,1-.21-3.23,13.7,13.7,0,0,1,.58-3.21c.37-.94,0-2.44,0-3.49s-1.26-2.75-1.21-3.64-.79-3.68-.64-4.67a11.53,11.53,0,0,1,1.11-3.12C294.35,138.65,295.82,135.48,296.34,134.86Z"/><path class="cls-1" d="M285.18,197.21a17.12,17.12,0,0,1-.36-2.57c0-.34,0-.62,0-.8,0-.72-.34-3.35-.39-3.79,0-.18-.06-.54-.1-.94,0-.05,0-.1,0-.14s0-.13,0-.16,0-.07,0-.14a6,6,0,0,0-.26-1.17c0-.12-.11-.32-.19-.58a.09.09,0,0,0,0,0c-.4-1.53-.92-3.47-1-3.77a.1.1,0,0,1,0,0l.68-1.71a2,2,0,0,1-.21-.16h0a.83.83,0,0,0-.2-.16l0,0a21.16,21.16,0,0,1-2.41-2.1.46.46,0,0,1-.07-.1l-.19-.39a.14.14,0,0,1,0-.06,5.68,5.68,0,0,1-.24-.77,2.65,2.65,0,0,0-.73-1.15h0a2.22,2.22,0,0,0-.6-.46l-.23-1c0-.22,0-.41,0-.44h-.14l-.05-.22a54,54,0,0,0,3.51-4.12,12,12,0,0,0,1.17-1.58h0v0a1.63,1.63,0,0,0,.24-.7c0-.05,0-.08,0-.12h0c.18-.66.37-1.49.17-1.58h0a37.38,37.38,0,0,1,4.52-.57l.67,0c.25,0,.89-.1,1.62-.21l.22,0a15.45,15.45,0,0,0,2.84-.55c.07-.06.24-.27.45-.52h0a8.23,8.23,0,0,0,.75,1.73c.7,1.37,1.69,2.62,2.53,2.56a25.14,25.14,0,0,0,3.63-.22c1.26-.27,3.29-1.24,4.13-.93a7.22,7.22,0,0,1,2.45,1.56c.64.62,3.43,3,4,3.46s3.08,2.43,3.36,2.78a2.48,2.48,0,0,1,.23,1h0a13.11,13.11,0,0,1-.71,3.53c-.44.69-2.72,5.18-3.06,5.87l-.05.09,0,0c-.26.36-3.77,5.25-5,7.46l-.41.37a28.36,28.36,0,0,1-2.89.66c-1.12.17-1.53-1.77-1.53-2.32s.62-1.18,1.47-2.5,2.23-2.43,1.54-3.6-1.12-2.64-2.6-1.6-1.89,1-2.45,1.66a7.85,7.85,0,0,0-1.33,3.47c0,.9-1.4.34-2.1,1.25s-1.89,2.56-2,2.84-1.12-.21-1.54-.55a3.39,3.39,0,0,0-2.73.06,3.16,3.16,0,0,0-1.53,2.18C287.63,195.92,285.48,198,285.18,197.21Z"/><path class="cls-1" d="M281,179.37c.42.34,1.62,1.37,1.91,1.56l.13.07,0,0,.2.16h0c.09.13.12.32,0,.68-.27.67-.47.8-.45,1.19a.06.06,0,0,0,0,0c.06.45.64,2.61,1,3.77a.09.09,0,0,1,0,0c.21.79.38,1.46.45,1.75,0,.1,0,.2,0,.3s0,.09,0,.14c.07.91.27,3.5.47,5.53,0,1.13,0,2.89.45,3.49.55.78.55,2.11,1,2.58s2.85,2,3,2.25.47.31.24.83-1.21,1.38-.74,2a33.28,33.28,0,0,1,1.45,3.2,3.3,3.3,0,0,1,.14.76h0a4.12,4.12,0,0,0,.35,1.46,2.17,2.17,0,0,1,.1.21v0l.33,1.21a14.38,14.38,0,0,1,.25,1.6l-.11,1.52s-1,.13-.54.53l-.06,0a5.68,5.68,0,0,1-2.19-.24l-.58-.22a13,13,0,0,1-1.78-.92l-.9-1a3.9,3.9,0,0,0-1-1h0a1.81,1.81,0,0,0-.64-.08h0c-.91-.12-2.39-.32-2.53-.35h0s0,0-.08-.05c-.27-.17-.45-.41-1-.81a9.35,9.35,0,0,0-1.38-.89,3.27,3.27,0,0,0-2.37-.38,5.66,5.66,0,0,0-1.67.1l-.74.16a1.86,1.86,0,0,0-1.09.33h0a.79.79,0,0,0-.37.31.35.35,0,0,0-.05.08h0a3.11,3.11,0,0,0-.29.39.05.05,0,0,0,0,0,1.12,1.12,0,0,0-.16-.68c-.28-.47-.53-.83-.72-1.15s-.28-.58-.33-.69l0-.05,0-.09a3,3,0,0,0,0-.37h0c0-.47.09-.72-.09-1h0a1.53,1.53,0,0,0-.25-.28,3.19,3.19,0,0,1-.69-.79,0,0,0,0,0,0,0,14,14,0,0,1-.26-2.48l-.08-3.11c0-.44,0-.82,0-1s0-.24,0-.4v-.36c0-.69,0-1.56-.06-1.7a.32.32,0,0,0-.09-.17l0-.59h0a.92.92,0,0,0,.41-.78,9.35,9.35,0,0,0-.35-1.87.37.37,0,0,1,0-.09A1.42,1.42,0,0,1,269,194l-.06-.14,0,0a1,1,0,0,0-.09-.17c-.46-.95-1.16-3-1.18-3.09s-.4-.75-.82-1.5l0,0a11.83,11.83,0,0,0-.94-1.68h0a4.42,4.42,0,0,0-.53-.65l-.12-.1,0,0c-1.18-1.36-3.46-4-3.73-4.37,0,0,0,0,0,0l0-.07a1.81,1.81,0,0,1-.28-1.15.33.33,0,0,1,.05-.16,14.8,14.8,0,0,0,1-1.56h0a1.14,1.14,0,0,0,.19-1.11c-.14-.36-.38-.93-.63-1.49l-.12-.28-.05-.07a6.83,6.83,0,0,0-.6-1.14,3.46,3.46,0,0,1-.69-1.33,12.94,12.94,0,0,1,3-1.54l.08,0h.1a15.64,15.64,0,0,1,2.78-.25h0l.25,0h0c.7.19,3.31,1.18,4.31,1.55l.19.08.06,0,.08,0a3.27,3.27,0,0,0,.77.26,17.8,17.8,0,0,0,2,.1h0l2.2.22h.09a4.82,4.82,0,0,0,1.6.25h0l.54,0,.12.44c0,.37,0,.87.23,1l.6.46h0s.6,1.2,1,1.92a.14.14,0,0,0,0,.06,3.54,3.54,0,0,0,.19.39.46.46,0,0,0,.07.1A1.61,1.61,0,0,0,281,179.37Z"/><path class="cls-1" d="M248.72,117.24c-.19-.09-.34-.32-.39-.86,0-.19,0-.44,0-.7,0,0,0,0,0-.06.08-.88.15-2,.21-2.89,0-.13,0-.27,0-.39.06-.46.09-.8.09-.92a2.08,2.08,0,0,0,.06-.24c.11-.25.36-.42.24-.8a.76.76,0,0,0-.23-.33c-.28-.24-.67-.39-.67-.82a1.48,1.48,0,0,1,.07-.37.64.64,0,0,0,0-.07,32.67,32.67,0,0,1,2-3.22.43.43,0,0,1,0-.07.85.85,0,0,0,.18-.37h0a8.84,8.84,0,0,0-.49-2.47.22.22,0,0,1,0-.08,5.22,5.22,0,0,1-.09-.71v-.12l0-.07c.18-.41,1-1.2.85-1.74a5.79,5.79,0,0,0-1.33-1.45l0,0a5.88,5.88,0,0,0-.75-.79c-.18-.14-.36-.3-.53-.46l0,0h0a2.68,2.68,0,0,1-.54-2.37,13,13,0,0,1,1.33-1.12l.23-.17.43-.32.24-.18,0,0c.32-.22,1.16-.68,1.89-1.08l.25-.13.27-.13.07-.05.49-.26.12-.06.19-.11.24-.14h0a9.3,9.3,0,0,0,1.21-.76l.24-.19.16-.12c.18-.13.35-.27.49-.39h0l0,0,.34-.3a.12.12,0,0,0,0,0c.61-.48,1.13-.87.94-1.5a.81.81,0,0,0-.08-.34l-.19-.44a.24.24,0,0,0,0-.08c-.05-.16-.1-.32-.14-.47s0-.17-.06-.24a2.66,2.66,0,0,1-.05-.91h0c.2-.37,3.07-1.93,3.6-2.73a0,0,0,0,0,0,0c.32-.31.54-.59.53-.81a6.25,6.25,0,0,1,.14-1.32l0-.17c.08-.39.17-.7.2-.84a.08.08,0,0,1,0,0,14.79,14.79,0,0,1,.91-1.44s0,0,0,0a1.83,1.83,0,0,1,.13-.16,0,0,0,0,1,0,0,22.12,22.12,0,0,0,3-2.75c.27-.41.84-1.48,1.36-2.51,0,0,0,0,0,0a4.37,4.37,0,0,0,.27-.48,18.58,18.58,0,0,0,.81-1.76s0-.07,0-.08a.13.13,0,0,1,0-.08,3,3,0,0,0,.13-2.46,1.49,1.49,0,0,0-.2-.69,2.12,2.12,0,0,0-.26-.26h0c-.46-.69-1-1-1.06-1.31a.24.24,0,0,1,0-.08c-.06-.39.74-2.31.63-2.85h0a11.66,11.66,0,0,1,1.22-1.78l0,0a4.23,4.23,0,0,1,.76-.61.34.34,0,0,1,.11,0l.1,0c.41-.09,1.25-.26,2-.39l.75-.13a15.49,15.49,0,0,0,2.09-.42c.81-.29,2.57-.59,3-.83a31.81,31.81,0,0,1,3.2-.65,8.81,8.81,0,0,0,3.69-.83l.2-.09c.07,0,.12-.08.13-.12a3.33,3.33,0,0,1,.71-.78s1.41,1.2,1.47,1.92a3.16,3.16,0,0,0,.57,2.08c.58.73,1.84,1.15,1.84,2s.06,2,0,2.5,1.36,1.14,2.15,1.86a2.2,2.2,0,0,1,1,2.13c0,1.2.31,2.5.26,3.49s1.68,4,2.05,4.62,1,1.2,1,1.72a15.17,15.17,0,0,1-.2,2.6,26.15,26.15,0,0,0-.21,3.64c0,.46-.53,1,.41,1.86s1.26,1.2,1.37,2.14a4.44,4.44,0,0,0,1.05,2.33c.42.42.53,1.09,1.48,1.41s2.2.25,2.46.73a30,30,0,0,0,2.21,2.9c.36.37,1.83.74,2.41,1.2a7.44,7.44,0,0,1,1.42,1.35,26.58,26.58,0,0,1,1.78,2.7l-.87,3.11,0,.13s-1,1.53-1.27,2l-.08.13a3.39,3.39,0,0,0-.31.7,3.32,3.32,0,0,1-.12.32s0,0,0,.08c-.19.44-.39.91-.49,1.18h0c-.06.13-.09.22-.09.22l-.06.15,0,.09a9.51,9.51,0,0,0-.44,1.12v.06l0,.11h0a5.44,5.44,0,0,0-.41.56s0,0,0,0a2,2,0,0,0-.36.65,4.64,4.64,0,0,0-.17.69.19.19,0,0,0,0,.08c-.15,1.1-.11,1.69-.14,1.78s-.6,1.19-.83,1.65l-.05.11,0,0,0,.07a1.78,1.78,0,0,0-.16.42l-.08.83a1.38,1.38,0,0,0,0,.2,4.74,4.74,0,0,1-.15.68c-.08.15-1.32,1.23-1.79,1.63l-.17.15,0,0a21.87,21.87,0,0,0-1.86,2.2l-.15.21c-.13.16-.22.3-.31.42a2.88,2.88,0,0,0-.28.69,3.24,3.24,0,0,0-.26,1.32v0c-.09.68-.13,1.33-.14,1.69a.08.08,0,0,0,0,0,.78.78,0,0,0,0,.38h0a0,0,0,0,0,0,0,5.11,5.11,0,0,0,.58,1.1,0,0,0,0,0,0,0,5,5,0,0,1,.46,1v0c0,.33-.36,1.86-.4,2.06h0a38.63,38.63,0,0,1-2,3.85c-.52.62-2,3.79-2.31,4.26a11.53,11.53,0,0,0-1.11,3.12c-.15,1,.69,3.79.64,4.67s1.21,2.6,1.21,3.64.37,2.55,0,3.49a13.7,13.7,0,0,0-.58,3.21,19.41,19.41,0,0,0,.21,3.23c.1.47.47,2.49.47,2.49l-1.07,1.3a25.54,25.54,0,0,1-3.29,1.07l-.22,0-2.29.25c-1.05,0-3.14.16-5.34.25l-7.69,0c-.45-.24-.77-.05-1.3,0h-.15a2.64,2.64,0,0,1-.88-.19h0c-.41-.2-1-.53-1.57-.89l0,0a15.23,15.23,0,0,1-2.67-2.22c0-.48-.39-.47-.51-1.43,0-.48,0-1.16,0-1.88.31-2.72-.45-3.48-.56-3.64,0,0,0,0,0,0v0l-.05-.13c-.17-.49-.37-1-.57-1.44l-.1-.25c-.49-1.23-1.06-2.68-1.18-3a.15.15,0,0,1,0-.06s0,0,0,0c-.06-.18-.22-.74-.45-1.45s-.41-1.33-.51-1.66-.22-.57-.39-1a.05.05,0,0,0,0,0,10.31,10.31,0,0,0-.95-2.13l0,0a16.88,16.88,0,0,0-.88-1.71,8.13,8.13,0,0,0-1.29-1.63l-.15-.15c-.19-.2-.4-.38-.6-.56-.79-.67-2.21-.52-2.47-.67l-.13-.25h0a1.32,1.32,0,0,0-.54-.94,1.84,1.84,0,0,0-.31-.2,1.35,1.35,0,0,0-.68-.39h0a18.08,18.08,0,0,0-2.09-.92l-.44-.11-.17,0-.46-.11-.11,0,0,0c-.2-.57-.47-1.09-.33-1.32.31-.35,4.37-3.62,4.68-4.38h0a1.42,1.42,0,0,0,.22-.71,2.1,2.1,0,0,0,.07-1.35v0a.86.86,0,0,0-.24-.65,7.92,7.92,0,0,0-.66-.53c-.87-.95-2.06-2.12-2.33-2.46-.4-.5,0-1.74-.59-2.39a.18.18,0,0,0-.07-.08l-.25-.23a8.44,8.44,0,0,1-.85-.83s0,0,0,0a2.49,2.49,0,0,1-.39-.66,10,10,0,0,1,.18-1.41,2.37,2.37,0,0,0,.06-1.5l-.15-.28c-.18-.42-.34-.88-.79-1a.46.46,0,0,0-.55-.11,1.23,1.23,0,0,0-.23.18h0a8.74,8.74,0,0,1-1.71.42Z"/><path class="cls-1" d="M252.75,137.86a1.5,1.5,0,0,0-.06-1.26l.11,0,.46.11.17,0a13.38,13.38,0,0,0,2.53,1h0c.25.13.48.26.68.39a4.48,4.48,0,0,1,.85,1.14h0a.3.3,0,0,0,.13.25c.14.25,1.08.15,1.3.18a4.7,4.7,0,0,1,1.77,1l.15.15c.74.77,1.48,2.46,2.17,3.34l0,0c.34.71.68,1.49.95,2.13a.05.05,0,0,1,0,0c.32.88.65,1.85.9,2.64s.39,1.27.45,1.45l0,0a.15.15,0,0,0,0,.06,15.91,15.91,0,0,0,.63,1.77c.11.22.32.66.55,1.2l.1.25.57,1.44a.79.79,0,0,1,.05.13v0s0,0,0,0a8.25,8.25,0,0,1,.49,1.93c.05.53.07,1.14.07,1.71a.11.11,0,0,0,0,0,7.21,7.21,0,0,0,0,1.83c0,.09,0,.18,0,.25a1.63,1.63,0,0,0,.53,1.18v0c0,.39,1.37,1.4,2.67,2.2l0,0,.09.06a6.46,6.46,0,0,0,1.48.83h0a1.85,1.85,0,0,0,.53.21l.35,0h.15c.55,0,1.3,0,1.3,0,.48.25,4.23.17,7.69,0l.82.32h0s-.13.84-.17,1.58h0c-.11.4-.22.73-.25.82v0h0l-4.68,5.7a1,1,0,0,1-.49.18h0l-1.6-.25h0a8.6,8.6,0,0,0-.89-.17c-.37,0-.86-.06-1.37-.06h0c-1.25-.13-2.6-.29-2.75-.34l0,0a.15.15,0,0,0-.08,0l-.06,0-.19-.08c-.66-.28-1.67-.69-3.34-1.3a4.61,4.61,0,0,0-1-.25h-.08a1.18,1.18,0,0,0-.21,0h0a7.79,7.79,0,0,0-2.78.25h-.1l-.08,0a8.63,8.63,0,0,0-2.9,1.28.27.27,0,0,0-.07.26h0c-.2.35,1,2,1.3,2.46l.05.07.12.28a6.79,6.79,0,0,1,.55,2,1.5,1.5,0,0,1-.11.55h0c-.16.22-.36.44-.53.68a3.71,3.71,0,0,0-.48.88.33.33,0,0,0-.05.16.89.89,0,0,0-.06.43,2.72,2.72,0,0,0,.34.72l0,.07s0,0,0,0a11.78,11.78,0,0,0,1.16,1.65c.45.48,1.92,2.08,2.57,2.72l0,0,.65.75h0c.05.1.51.91.94,1.68l0,0c.1.22.19.43.28.65a40.18,40.18,0,0,0,1.68,3.88.13.13,0,0,1,0,.06,1,1,0,0,1,.09.17l0,0,.06.14a1.42,1.42,0,0,0,.05.16.37.37,0,0,0,0,.09,9.35,9.35,0,0,1-.06,2.65h0a1.53,1.53,0,0,1-.6.26h0c-1.27-.23-9.18-1.77-10.57-2l-.21,0c-.87-.17-6.33.14-6.89.18l-.42,0-.16,0h0c-.51.07-6.57.55-6.86.76v0a.73.73,0,0,0-.21.28.14.14,0,0,0-.08-.09l-.13-.13v0a4.22,4.22,0,0,1-.39-1c0-.12,0-.21,0-.26s-.1-.49-.2-.95a0,0,0,0,0,0,0,7.46,7.46,0,0,0-.28-1.17.07.07,0,0,1,0-.05c-.05-.16-.09-.31-.13-.41a3.41,3.41,0,0,0-1.15-1.66l-.3-.3h0c-.17-.18-.34-.37-.54-.57l-.29-.34a2.87,2.87,0,0,1-.62-1.38,12.64,12.64,0,0,0,.28-1.78c0-.14,0-.28,0-.4v0a1.94,1.94,0,0,0-.09-.67.19.19,0,0,0,0-.08,1.92,1.92,0,0,0-.35-.7l0,0c-.36-.54-.83-1-1.1-1.39a.64.64,0,0,1-.08-.14,1.63,1.63,0,0,1-.13-.48c-.05-.68.16-1.77-.15-2.24l-.62-1.74a8.81,8.81,0,0,0-.58-1.65v0l-.06-.17a9.23,9.23,0,0,0-1.5-4.65l0-.06a3,3,0,0,0-.34-.59l-.09-.1a18.12,18.12,0,0,1-1.45-3s0,0,0-.06l-.26-.75-.14-.4a11,11,0,0,1-.44-1.46l.14,0,1-.15.15,0,.5-.07a9.62,9.62,0,0,1,2.12-1.18h0a4,4,0,0,1,1.18,0l1.78.25c.77.15,1.57.34,2.26.5a4.31,4.31,0,0,0,1.84.39h.17a7.14,7.14,0,0,0,3.27-1.35,7.06,7.06,0,0,0,.85-1.1l0,0a13,13,0,0,0,1.85-3.19h0a3.31,3.31,0,0,0,.19-.48,54.73,54.73,0,0,0,1.36-5.41c0-.15,0-.31,0-.49v0a6,6,0,0,0,.06-1.16v-.07c0-.54.05-1.1.08-1.59.09-.77.24-1.56.37-2.25,0,0,0,0,0,0a10.28,10.28,0,0,0,.36-1.75s0,0,0-.05V146a1.75,1.75,0,0,0-.14-.81c-.07-.16-.15-.32-.23-.47l-.1-.2c-.18-.4-.37-.75-.5-1v0a.27.27,0,0,1-.05-.14,1.67,1.67,0,0,1,0-.18,2.16,2.16,0,0,1,0-.79v0a11.8,11.8,0,0,1,.82-1.76l0,0c.47-.68.88-1.29,1.2-1.81l0,0A3.33,3.33,0,0,0,252.75,137.86Z"/><path class="cls-1" d="M243.25,196.13c.8.06,5.24-.56,6.91-.76l.16,0c1.24-.08,7-.26,7.31-.23l.21,0c1.2.24,5.08,1,5.71,1.18s4,.79,4.51.87a1.4,1.4,0,0,0,.35,0h0l.17,0a.64.64,0,0,1,.47.31l.15,1.87v.36l0,1.37c0,1,0,2.46,0,2.63a19.68,19.68,0,0,1,.06,2.08,1.7,1.7,0,0,0,.25.88,0,0,0,0,1,0,0,3.78,3.78,0,0,0,.94,1.07h0c0,.08.05.61.09,1h0V209a1.81,1.81,0,0,0,0,.23l0,.09,0,.05a2.07,2.07,0,0,0,.33.69c.36.76.88,1.83.88,1.83a9.51,9.51,0,0,0-.6,1.13c-.09.12-.16.23-.15.3a17.45,17.45,0,0,0,.64,1.66,0,0,0,0,0,0,0,23,23,0,0,1,.32,2.8h0a.06.06,0,0,0,0,0c-.1.35-.71,2.71-1.13,4.25a.11.11,0,0,0,0,.05c-.05.14-.1.26-.14.35a1.41,1.41,0,0,0-.13.59h0a3.23,3.23,0,0,0,.21,1.78,1.87,1.87,0,0,0,.07.22,13.42,13.42,0,0,0,.85,1.87,0,0,0,0,1,0,0s0,.07.05.11v0c.09.3.52,2.23.55,2.3s1.42,1.89,1.57,2.22a0,0,0,0,0,0,0s0,0,0,.07c.11.43.29,2.1.29,2.1a2,2,0,0,1-.73,1.31c-.39.38-1.61,1.73-2,1.73a19.05,19.05,0,0,0-2.76,1.22c-.39.17-.64,1.14-.74,1.73s0,1.74,0,2.39-1.05,1-1.57,1.35-1.76,1.77-2.1,2a4.9,4.9,0,0,0-1.19,1.66,8.46,8.46,0,0,1-1.12,1.77c-.36.42-.84,1.25-1.16,1.39a12,12,0,0,1-3.64-.28c-1.78-.31-1.12-.52-1.58-.9s-1.36-.52-2.16-1.08-.56-.24-.91-.17-1.44.39-1.79.45-.45-.34-.63-.52-1.23-.52-1.51-.72-1.11-.53-1.39-1.15-.46-.42-.67-.42a2.58,2.58,0,0,1-1.09-.2c-.23-.17,0-.86-.2-1a6.13,6.13,0,0,1-1-1.21c0-.13.45-.48.45-.79s-.52-.25-.7-.28-.59-.59-.77-.83.11-.9,0-1.35-.45-.32-.67-.32-.28-.41-.38-.76-.27-1.32-.27-1.32a17.49,17.49,0,0,0,.14-2,3.72,3.72,0,0,0-.22-1.15,2.68,2.68,0,0,0-.7-1c-.35-.31-.17-.55-.14-1.07s.67-.25.92-.35.83.14,1,0-.23-.87-.51-1-.45-.1-.5-.48-.17-.52-.62-.45-.56.55-.74.59a2.19,2.19,0,0,1-1.09,0c-.38-.14-.65-1-.65-1.35a5.35,5.35,0,0,0-.28-1.7,4,4,0,0,1,.14-2c.14-.48.55-.42.93-.7s1.37-.62,1.37-.76-.42-.48-.87-.94.24-.31.38-.41,0-.59-.73-1.11-1.19-.83-1.13-1.73a6.24,6.24,0,0,0-.37-2.22c-.08-.17-1.41-1.46-1.58-1.63a2.7,2.7,0,0,1-.42-1.28c0-.35-.08-1.1-.08-1.1s-.65-.18-.73-.74.53-.52.73-.69.14-.55.14-1a22.38,22.38,0,0,1,0-2.6c.11-.17.71-.34,1.07-.75s-.57-.91-.21-1.05.2-.62,0-.9.07-.69,0-1.31a5.6,5.6,0,0,0-.85-2.22,15,15,0,0,0-1.39-1.39,4.46,4.46,0,0,1-.35-1.9s.44.06.62.1l.06,0,.16.06a11.05,11.05,0,0,0,4,.06,2.64,2.64,0,0,0,.33-.2c.68-.13.64-.45.89-.66l.06,0c.61-.49,1.19-1,1.34-1.12a.93.93,0,0,0,.65-.4c.17-.12.27-.24.24-.35h0l.18-.32Z"/><path class="cls-1" d="M183.58,156.84c.66.28,2.87-.12,3.75.34h0l.28.23c.61.74,1.43,2.12,1.84,2.12.09,0,1.14,0,1.85,0h3.6a2.65,2.65,0,0,0,.56,0h.07c.4,0,1.59-.3,2.13-.36h.11a1.81,1.81,0,0,1,.49.07,1.42,1.42,0,0,1,.47.39l0,0,.09.1c.25.33-.16.25.39.38.5.42,1.17.84,1.75,1.25.07.07.15.12.23.19s.28.22.41.33a2,2,0,0,1,.41.44,3.74,3.74,0,0,0,1.59,1.13,5.86,5.86,0,0,0,1.55,1c.53,0,.91-.56,2.09-.75l.09,0,.36,0,1.36-.23.2,0,1.13-.19.15,0a8.67,8.67,0,0,1,2.23-.08h.05l.44.07a3.09,3.09,0,0,1,1.16.59c.07.17,0,.22.68.55l.06,0c.34.18,2.72,1.47,3.45,1.91a1,1,0,0,0,.15.08l.13.07a4.88,4.88,0,0,0,1,.28,3.18,3.18,0,0,0,.68.09h.59a1.11,1.11,0,0,0,1.09-.52v0a2.28,2.28,0,0,1,.53-.26.3.3,0,0,0,.27-.05c.44-.06,1-1.26,1.39-1.45a.48.48,0,0,1,.34.22c.32.41.69,1.1,1.07,1.11h0a.4.4,0,0,0,.28-.12,6.73,6.73,0,0,0,1-1.69s0,0,0,0a2.48,2.48,0,0,1,.94-.12,6,6,0,0,1,1.28.45c.49.44,1.14,1.16,1.4,1.18a4,4,0,0,0,.54-.05h0a6.12,6.12,0,0,1,.67,1.42l.14.4c.07.23.16.47.26.75,0,0,0,0,0,.06.12.36.24.71.33,1a5.34,5.34,0,0,0,1.12,2l.43.69,0,.06c.37.75.7,1.76,1,2.27a12.41,12.41,0,0,1,.52,2.38.85.85,0,0,0,.06.17v0l.58,1.65a1.16,1.16,0,0,1,0,.18,3.57,3.57,0,0,0,.58,1.56,7.52,7.52,0,0,0,.28,2.72.64.64,0,0,0,.08.14,8.06,8.06,0,0,0,.94,1.2,1.46,1.46,0,0,1,.16.19l0,0a3.06,3.06,0,0,1,.35.7.19.19,0,0,1,0,.08,3.1,3.1,0,0,1,.09.67v0a8.9,8.9,0,0,0-.29,2.18,1.83,1.83,0,0,0,0,.41,3.05,3.05,0,0,0,.61,1l.29.34c.17.18.35.38.54.57h0a6.43,6.43,0,0,1,1.58,2.37.07.07,0,0,0,0,.05c.09.35.19.78.28,1.17a0,0,0,0,1,0,0,.78.78,0,0,1,0,.16,9.62,9.62,0,0,0,.23,1,2.44,2.44,0,0,0,.39,1v0a.66.66,0,0,0,.2.24,3.71,3.71,0,0,1-.21.37c-.21.16-.52.3-.65.4-.73.12-1,.83-1.34,1.12l-.06,0c-.31.24-.63.49-.89.66a3.6,3.6,0,0,1-.65.06c-1.36,0-3.73,0-3.83,0l-.06,0a2,2,0,0,0-.62-.1.58.58,0,0,0-.37.09c-.26.2-.58.77-1,.77s-3.15-1.19-3.94-1.25-7.08-.52-8.81-.52a6.88,6.88,0,0,0-3.62,1.26A31.34,31.34,0,0,0,212.4,202c-1,.83-4.47,3.64-5.41,3.8s-4.15-.31-4.68-.26a14.4,14.4,0,0,1-4.3-1.71,14.64,14.64,0,0,1-2.52-3.38c-.68-1.35-.26-2.86-.58-3.59s-2.1-3.43-2.36-4.52.06-4.32,0-5.46-1-2.7-1.57-4.42-2.16-3.17-2.73-4.26-2.68-2.76-3.31-3.53-.32-2.86-.84-4.21a13,13,0,0,1-.68-3.05c-.16-.87.05-1.53-.68-2.51a13.7,13.7,0,0,1-1.69-3.07c-.47-1.14-.05-2,.27-3.12s1.42-1.4,1.67-1.77a.52.52,0,0,1,.28-.24h0A1.75,1.75,0,0,0,183.58,156.84Z"/><path class="cls-1" d="M184.31,156.32a6.49,6.49,0,0,0,1.58-2.7c.31-.84.62-2.7.94-3.33s-.42-5.19-.63-7.06-2.73-4.47-2.84-5.61a21.4,21.4,0,0,1,.53-3.86c.11-.93.42-3-.21-4s-.42-4-.94-5.92a15.34,15.34,0,0,0-1.47-3.33,14,14,0,0,1-.74-4.67c0-1.77-.32-.83-.52-1.46a15.8,15.8,0,0,0-1.16-2.6c-.63-1.15-1.26-.93-1.79-1.56s-.52-1.87-.62-2.91,0-2.6,0-4,.2-1.45-.63-2.39-2.21-4.47-1.9-5.3,1.68-1.46,2.73-2.81a16.55,16.55,0,0,1,3.47-2.7,3.77,3.77,0,0,0,1-2.39,3.18,3.18,0,0,1,2.42-2c.94,0,1.15-1,1.57-1.55a19.11,19.11,0,0,0,1.58-2.6c.42-.83,2.31-.94,2.31-.94a12.39,12.39,0,0,0,1.38-2.81c0-.61,2.29-1.87,2.29-2.18a3.17,3.17,0,0,1,.52-1,22.86,22.86,0,0,1,3.89-2.49c1.36-.52,5.25-1.35,6.09-1.77a5.06,5.06,0,0,0,2.2-2.81c0-.72,2.52-1.76,3.15-2.38s1.48.31,2.31.41,2.21-.93,3.15-.93,2.41-.21,2.71-.94,1.07-2.18,1.92-3.74-.64-1.25-.74-2.6.31-2.6.21-3.12A25.32,25.32,0,0,1,216.76,51c-.22-1.14,1-.42,1.89-.62s.42-.52.42-.94-1.16-.94-1.06-1.25a9,9,0,0,1,2.29-2.07h2.43c.64,0,.64-.84.85-1.57a11.09,11.09,0,0,1,.52-1.66c.21-.41.32-1.14-.31-1.24a4,4,0,0,1-1.89-1.15c-.53-.52-1.79-2.6-1.58-3.12s2-1,2.74-1.35a4.75,4.75,0,0,0,1.46-1.25s2.42-.62,2.84-.83,3.78-1,4.93-1.66,2.52.21,3.37,0,1-1.45,1.15-2.08a10.7,10.7,0,0,1,2.51-3.54c1.06-.93,3.79-2.7,4.52-3.63s1.58-2.91,3.57-3.74,1.89-1.35,2.1-1.66,1.26-2.29,1.47-2.81,1.68-1.25,3.36-1.66a43.4,43.4,0,0,1,6.3-.94,4.75,4.75,0,0,0,4.2-2.7c.63-1.35,4.41-4.78,5.25-5.72A25.87,25.87,0,0,1,274.61.62l.31.93a1.52,1.52,0,0,0,1.41.94c.69,0,.56-.7,1-.7s.34.94.39,1.43.48.83.87,1.24.18.84.21,1.59,0,0,.68.21,1,.2,1.23.83-.84.86-.68,1.35.77.42,1.23.55.58,1.14.58,1.79-.23.52-.16,1.22a1,1,0,0,1-.46,1.07c-.22.18-1.32-.39-1.74-.11s-.18,1-.18,1.2.62.59,1.13.41a.92.92,0,0,1,1.1.44c.1.29,0,1,.24,1.22s.55-.15,1.07.22.42.61.55,1.42.63,1.51.76,2.26-.55.86-.84,1.62a18.49,18.49,0,0,1-1.21,2.2l.37.86c.16.34-.1,1.22,0,1.74a18.33,18.33,0,0,1,.39,2.5,8.6,8.6,0,0,0-.89,1.73c0,.39-.5,2.68-.47,2.94s.94,1.35,1.47,2.32-.81,3.27-.84,3.55-1.13,1.28-1.23,1.59a2.8,2.8,0,0,0,.68,1.92c.58.83.68,2.55.86,3.59a7.55,7.55,0,0,1-.81,3.35,10.37,10.37,0,0,0,.08,2.78,3.11,3.11,0,0,0,.76,2.06c.48.39.87,0,1.42.23s0,.73-.13,1.22c0,0-.06.07-.13.12l-.2.09a30.29,30.29,0,0,1-3.69.83c-1.06-.21-3.2.65-4.62.78s-2.77,1-3.64,1.12l-.75.13c-.76.13-1.5.25-2,.39l-.1,0a.34.34,0,0,0-.11,0,2.24,2.24,0,0,0-.76.61l0,0c-.62.6-1.28,1.43-1.22,1.78h0c-.36.61-.61,1.12-.66,1.21a3.41,3.41,0,0,0,0,1.64.24.24,0,0,0,0,.08c.13.58.65.93,1.06,1.31h0a4.38,4.38,0,0,1,.45.92v0a20.63,20.63,0,0,1-.12,2.3s0,.1,0,.16a.13.13,0,0,0,0,.08s0,0,0,.08c-.12.29-.58,1.25-1.08,2.24,0,0,0,0,0,0-.56.87-1.63,2.16-1.89,2.67a13.58,13.58,0,0,1-2.15,2.23c-.09.1-.2.22-.31.36a0,0,0,0,0,0,0l-.06.07-.07.09s0,0,0,0a7.43,7.43,0,0,0-.91,1.44.08.08,0,0,0,0,0,5.5,5.5,0,0,0-.2.84l0,.17a7.22,7.22,0,0,1-.67,2.13,0,0,0,0,1,0,0,20.74,20.74,0,0,1-3.4,2.36.48.48,0,0,0-.2.37h0a1.54,1.54,0,0,0,.05.91c0,.07,0,.16.06.24a3.1,3.1,0,0,0,.14.47.24.24,0,0,1,0,.08l.26.75s0,0,0,0a2.45,2.45,0,0,1-.94,1.5.12.12,0,0,1,0,0l-.34.3,0,0h0c-.17.15-.34.28-.49.39l-.16.12c-.49.35-1.06.71-1.45,1h0l-.24.14-.19.11-.12.06-.49.26-.07.05-.27.13-.25.13a5.39,5.39,0,0,1-.75.35,7.91,7.91,0,0,0-1.14.73l0,0-.24.18-.43.32-.23.17c-.44.33-.8.6-.91.67a1.32,1.32,0,0,0-.42.45,2.13,2.13,0,0,0-.35,1,2.59,2.59,0,0,0,.89,1.4h0l0,0a17.25,17.25,0,0,0,1.28,1.25l0,0c.59.74,1.16,1.66,1,1.92a5.53,5.53,0,0,0-.56,1.27l0,.07v.12a1.42,1.42,0,0,0,0,.41,1.92,1.92,0,0,0,.08.3.22.22,0,0,0,0,.08c.17.93.49,2.24.49,2.47h0a1.13,1.13,0,0,1-.18.37.43.43,0,0,0,0,.07c-.32.43-.9.83-1.1,1.2a14.52,14.52,0,0,0-.93,2,.64.64,0,0,1,0,.07c-.35.92.43,1,.6,1.19s.07.72,0,1.13a.53.53,0,0,0-.06.24,8.47,8.47,0,0,0-.09.92c0,.12,0,.26,0,.39-.09.88-.2,2-.21,2.89,0,0,0,0,0,.06a7.57,7.57,0,0,1-.15,1.25c-.09.27.15.35.57.31h0c.29.1.67-.09,1,0s.44-.11.71-.37h0a1.31,1.31,0,0,1,.78-.07,3.42,3.42,0,0,1,.79,1l.15.28a3.75,3.75,0,0,1-.06,1.5,3.57,3.57,0,0,0-.18,1.41,1.57,1.57,0,0,0,.39.66s0,0,0,0a7.33,7.33,0,0,0,.85.83l.25.23a.18.18,0,0,1,.07.08c.29.45,0,1.86.3,2.55a11.25,11.25,0,0,0,2.62,2.3,5.63,5.63,0,0,1,.9,1.18v0c0,.35-.05.79-.07,1.32v0c-.06.23-.14.46-.21.68,0,0,0,0,0,0h0a6.6,6.6,0,0,1-1.36,1.13,34.69,34.69,0,0,0-3.32,3.25c-.27.32.23,1.15.33,1.32a2.15,2.15,0,0,1,.17.88,1.21,1.21,0,0,1-.09.41l0,0c-.12.22-.29.49-.47.79l0,0a10.55,10.55,0,0,0-.83,1.15l-.37.66,0,0a5.1,5.1,0,0,0-.82,1.76v0a2.61,2.61,0,0,0-.08.33,1.46,1.46,0,0,0,0,.46.61.61,0,0,0,0,.18.27.27,0,0,0,.05.14v0a9.45,9.45,0,0,0,.5,1l.1.2a3.76,3.76,0,0,1,.37,1.28,1.55,1.55,0,0,1,0,.21c-.05.31-.2,1-.36,1.75,0,0,0,0,0,0a8.34,8.34,0,0,0-.28,1.2c0,.27-.07.64-.09,1a12.72,12.72,0,0,0-.08,1.59c0,.43,0,.86-.06,1.23v0a50.48,50.48,0,0,1-1.58,6.38h0a25.76,25.76,0,0,1-1.85,3.19l0,0c-.37.51-.7.92-.85,1.1a9.66,9.66,0,0,1-3.27,1.35h-.17c-.22,0-1-.18-1.84-.39l-.13-.08a7.61,7.61,0,0,0-2.13-.42,9.09,9.09,0,0,0-3-.29h0a3,3,0,0,0-2.12,1.18l-.5.07-.15,0-1,.15-.38.05a9.32,9.32,0,0,0-1.94-1.13,2.83,2.83,0,0,0-.31-.25,2,2,0,0,0-1-.2c-.42-.08-.76-.07-.94.12,0,0,0,0,0,0-.68.73-1.11,1.81-1.25,1.81h0c-.15-.06-1-1.5-1.41-1.33-.28,0-.54.31-.68.53a4.77,4.77,0,0,1-.71.92,1.08,1.08,0,0,0-.27.05.46.46,0,0,0-.53.26v0a1.56,1.56,0,0,1-1.34.51h-.07a7.77,7.77,0,0,1-.95-.08,9.41,9.41,0,0,1-1-.28l-.13-.07-.15-.08c-.32-.21-1.89-1.14-3.15-1.77l-.3-.14-.06,0c-.16-.12-.38-.33-.68-.55a1.28,1.28,0,0,0-.12-.2,2,2,0,0,0-1-.39,2.13,2.13,0,0,0-.44-.07h-.05a5.85,5.85,0,0,0-1.52,0l-.71.13-.15,0-1.13.19-.2,0-1.36.23-.36,0-.09,0-1.66.26a4.59,4.59,0,0,1-2-.53c-.61-.46-1.32-1-2-1.57a2.36,2.36,0,0,0-.41-.33c-.08-.07-.16-.12-.23-.19a11.28,11.28,0,0,0-1.75-1.25,3.56,3.56,0,0,1-.39-.38l0,0-.06-.07,0,0s0,0-.05-.07a.78.78,0,0,0-.42-.32.94.94,0,0,0-.49-.07h-.11c-.63,0-1.42.27-2.13.36h-.74c-.89-.06-2.18,0-2.87,0h-2.47c-.1,0-1-1.38-1.84-2.12l-.05-.06a.81.81,0,0,0-.23-.17h0a1,1,0,0,0-.55-.24c-.85,0-3.27-.28-3.5-.24h0A3.35,3.35,0,0,0,184.31,156.32Z"/><path class="cls-2" d="M393.7,435.46c.37,1,.92,1.66.85,2.63a33.67,33.67,0,0,1-1.16,4.54c-.55,2.08-.8,3-.8,3-1.46-1.6-2.45-4.9-4.1-5.7a23.68,23.68,0,0,1-4.28-3.37c-.74-.61-.74-1.28-1.66-1.65s-1.28.37-2.07-.49-.43-1.59-1.16-1.53-.5,1.66-1.66.79-1.29-2.57-1.53-3.06-.37-1.71-1.47-1.77-2.15.18-3.12-1.11-2.21-.73-2.14-2.5a25.2,25.2,0,0,1,1.41-6.43c.54-1.41,1.4-2.57.79-3.3s-1.72-3.74-2.2-4.66,0-.86-1-1.47-.73-.8-1.28-1.28-.37-1.17-1.47-.56-1.59,1.66-2.08,2.08-2.27.87-2.81-.12a3.58,3.58,0,0,0-2.09-1.84c-.73-.12-1.47.87-1.71-.36s.31-2.39-1.05-2.51-3.49-.43-4.22-.49-2.2-3.43-2.69-3.12.49,1.65-1,1.16-2.64-1-3.18-.67-2.15-.12-2.33-.19,0-.61-.68,1-2,2-3,1.53a8.73,8.73,0,0,1-2.89-2.4c-.48-.66-2.2-2.81-2.5-3.18a7.7,7.7,0,0,0-2.27-1.53,6.48,6.48,0,0,1-2.51-.43c-.61-.37-3.55-2.2-3.8-4.77s-.36-2.94-.92-3.8.13-1.89-.36-2.57-.8-1-1.1-.67-1.11.08-1.53-.15-.62.41-2,0a13,13,0,0,1-3.11-1.19c-1-.56-1.48-1-2.08-1s0,.62-1.05.49-1.71-.42-2.69,0,.49,1.11-1.72.62-2.38-.8-3.61-1.11-1.34-.06-2.08-.42-1.34-.68-1.9-1c-.22-.12-.34-.62-.37-1.2h0a1.52,1.52,0,0,0,.13-.85c0-.12,0-.24-.07-.36a1.78,1.78,0,0,1,.31-.95c.47-.46,1.61-.52,1.95-.93a.66.66,0,0,0,.22-.22v0c.53-.48,1.51-1.31.76-2.06-.52-.53-2.26-2.69-3.86-4.6a3,3,0,0,0-1.19-1.83,9.54,9.54,0,0,1-1.15-.86l0,0-.27-.27-.06-.05a2.16,2.16,0,0,1-.24-.33.45.45,0,0,1-.05-.18c0-.45-.41-2.08-.41-2.57,0-.23,0-.64-.06-1h0c0-.59.09-1,.09-1l.23-.21.11-.11c.14-.13.31-.3.51-.47a16.35,16.35,0,0,1,1.94-1.62,9.14,9.14,0,0,0,1.83-1.88,2.18,2.18,0,0,0,.63-1.33s0,0,0-.07c.24-1.17,1.13-4.92.87-5.28,0,0,0,0,0,0s-.3-.22-.75-.22a10,10,0,0,1-1.89-.1h0a1.51,1.51,0,0,1-.43-.86c.08-.42.2-.92-.2-1.17l-.09,0-.13-.09a1.42,1.42,0,0,1-.23-.14c-.31-.19-.61-.43-.44-.46l.08,0c.66-.11,2-.42,1.91-1.08,0-.47.53-1.19-.05-1.41h0a.85.85,0,0,0-.54-.22,4.45,4.45,0,0,0-1.51.16h0a4.51,4.51,0,0,1-2.5-1.22,8,8,0,0,1-.75-.71l0,0c-.87-.92-2.72-3.11-4.06-4.58-.53-.74-1.15-1.63-1.54-1.47l0,0c-.32.18-.16.6-.16.85,0,0,0,0,0,0a.15.15,0,0,1-.13.11.22.22,0,0,1-.13,0h0a3.22,3.22,0,0,1-1.19-1,2.14,2.14,0,0,1-.13-.19,10,10,0,0,1-.58-1.08h0c-.17-.4-.33-.78-.49-1.14a11.77,11.77,0,0,0-.75-1.65c-.09-.1-.15-.21-.22-.3a1.55,1.55,0,0,0-.19-.31,1.79,1.79,0,0,0-1.27-.94c-.21-.06-.64-.22-1.21-.46l-.17-.06-.17-.08-.42-.17-.55-.23-.74-.32-.38-.17-.33-.14-.84-.36-.11,0-1-.45-1.07-.45-.3-.14-.46-.2-.1,0a10,10,0,0,0-1.1-.45l-.12.08h0c-.14-.07-.24-.16-.24-.29l.38-.58a39.51,39.51,0,0,0,2.6-3.54l0-.06.26-.36.2-.3a.44.44,0,0,0,.08-.11c.48-.67,1.19-1.65,1.81-2.53s1.28-1.47,1.33-2a.31.31,0,0,0,0-.11c.05-.87-.12-5.84,0-6.72.11-.63,1.29-1.47,2.15-2a5.22,5.22,0,0,0,.88-.55h0a.43.43,0,0,0,.12-.11c.67-.5,1.18-1,1.49-1.25.55-.37.8-1.59,2.45-1.84s7-2.87,7-3.67-.12-3.54-.12-4a2.09,2.09,0,0,1,1.1-1.83c.25-.1.71-.24,1.3-.41h0a51.87,51.87,0,0,1,8.31-.52h0c1.55.18,3.21.41,4.49.57a63.17,63.17,0,0,1,6.71,1.58l.14.05a11.81,11.81,0,0,1,2,.93,18.34,18.34,0,0,1,2,1.55c2,2.38,5,6.2,5.25,7.26-.09.59-.22,1.24-.36,1.89h0c-1,3.08-3.53,8.64-3.81,10.54a.82.82,0,0,0,0,.21,1.34,1.34,0,0,0,0,.52l0,.12c.15,2.05,1.47,5.17,1.82,6.55,0,.1,0,.19,0,.28a1,1,0,0,0,0,.14,2.35,2.35,0,0,0,.25.7v0a4,4,0,0,0,1.29,1.8,3,3,0,0,0,1.19,0h.39a1.12,1.12,0,0,1,.63.32,5.1,5.1,0,0,1,.54.64l.15.18h0a1.19,1.19,0,0,0,.93.56h0A1.76,1.76,0,0,0,331,331l.41-.06h0a1.34,1.34,0,0,1,.8.5,3.86,3.86,0,0,0,2.32,1.44h0c1.22.48,1.75-.63,3-.65a10.37,10.37,0,0,1,2.66.87l.19.09.1,0,.48.23a17.63,17.63,0,0,0,2.32.26l.11,0s4.88,1,9.62,1.79c.12,0,.24,0,.36.06l2,.38c2.26.43,5.26.79,5.38,1.16a2.41,2.41,0,0,1-.36,1.53c-.19.12.18.62-.49,1.35s-1.17.68-.61,1.53a9.78,9.78,0,0,1,.91,1.6c.19.42-.3.91.31,1.65s1.28.48,1.72,1.46a25,25,0,0,1,1.28,6.31c.06,2,1.22,1.78.85,2.14s-2,.55-2.08,1.17-.42,2.26-1.1,2.81a15.07,15.07,0,0,1-2.51,1.29,3.29,3.29,0,0,0-1.65,2.38c-.18.62-.61,11.64.36,12.86a14.36,14.36,0,0,0,3.74,3.31c2.27,1.58,6.67,5.14,7.65,5.94s1.22,1.83,2.58,2.87,4.22,2,4.77,2.27,5.94,4.35,6.43,5.26.43,5.82.61,6.19a12.78,12.78,0,0,1,1.59,2.08,19,19,0,0,1,.92,4c.18.79,0,2.5.37,3.42a9.93,9.93,0,0,1,.55,3.06c.06,1-.55,2-.62,3.25a11,11,0,0,0,1.23,4.17c.49,1,.67,2.26,1.17,3.3a21.65,21.65,0,0,1,1.16,3.25,12.93,12.93,0,0,0,1.41,3.12c.8,1.46.24,1.59.73,2.32S393.33,434.48,393.7,435.46Z"/><path class="cls-2" d="M376.29,319.39c.17.33-1.06,2.93-1.22,3.43a11.52,11.52,0,0,0-.65,2.94c.08.56.65,2.53-.33,3.26s-.08,2.37-3.11,2.45-2.93-.81-3.75,0-2,.82-2.2,1.55a14.7,14.7,0,0,1-1.15,2.29c-.24.4-1.22.64-1.95,1.3-.35.3-4.34-.29-8.53-1-.12,0-.24,0-.36-.06-3-.55-7.12-1.3-8.32-1.58a9.51,9.51,0,0,0-1.3-.21l-.11,0c-.47-.07-2.27-.34-2.8-.49l-.1,0-.19-.09a5.58,5.58,0,0,0-2.66-.87c-1.59-.24-1.89.43-2.64.62a2,2,0,0,1-.36,0h0c-1.19-.48-1.59-2.11-3.12-1.94h0a.82.82,0,0,0-.41.06,8.34,8.34,0,0,1-1.14.13h0a1.9,1.9,0,0,1-.93-.56h0l-.15-.18c-.45-.62-.39-.91-1.17-1h0a1.16,1.16,0,0,0-.32,0h0a3.19,3.19,0,0,1-2.48-1.78v0a4.56,4.56,0,0,1-.25-.7,1,1,0,0,1,0-.14c0-.09,0-.18,0-.28a1.28,1.28,0,0,1,0-.19c0-.88-1.53-5.22-1.81-6.36a4.64,4.64,0,0,1,0-.64.82.82,0,0,1,0-.21,20.71,20.71,0,0,1,2-4.78,24.82,24.82,0,0,0,1.84-5.76h0a4.86,4.86,0,0,0,.36-1.89c.32-2-2.88-5.26-5.25-7.26a16.86,16.86,0,0,0-1.83-2s1.88-2.32,2.34-2.73l.29-.26a9.16,9.16,0,0,1,1.3-1,46.77,46.77,0,0,0,5.79-5.06,2.84,2.84,0,0,0,.37-.67h0a1,1,0,0,0,.17-.2,2.4,2.4,0,0,0,.18-.94c.11-.46.19-.92.26-1.28a7.14,7.14,0,0,1,.43-1.58.07.07,0,0,0,0,0,7.53,7.53,0,0,1,1.87-1.24,14.77,14.77,0,0,1,2.92.22h0a12.36,12.36,0,0,1,1.55.67,1,1,0,0,1,.18.09s0,0,0,0a4.61,4.61,0,0,0,2.62.79c1.14-.15,2-1.14,2.78-1.29a17.73,17.73,0,0,1,4.64.07,5.39,5.39,0,0,0,2-.12c2.33,0,3.23-.45,3.53-1l.25-.11s-.4,2.71-.65,3.85a40,40,0,0,0-.08,5.46v4.66a8.8,8.8,0,0,0,.73,3.1c.41.57,1.55.32,1.55,1.79s-.57,2.78-.32,2.94,1.63.17,2.28.73,3,.82,3,3.44-.16,4.56.49,5.31,4.25,2.44,5.14,2.84,5.88.58,6.94,1.07A21.84,21.84,0,0,1,376.29,319.39Z"/><path class="cls-2" d="M352.43,278.37a9.73,9.73,0,0,1,.63,3.13.77.77,0,0,1-.12.36,7,7,0,0,1-1.95.55,10.75,10.75,0,0,0-1.58.45,25.91,25.91,0,0,1-4.69-.57,22.4,22.4,0,0,0-4,1.1,5.07,5.07,0,0,1-3.39,0s0,0,0,0a1,1,0,0,0-.18-.09l-.7-.39a2.57,2.57,0,0,0-.85-.28h0a6.91,6.91,0,0,0-2-.47,2.6,2.6,0,0,0-.92.25h-.45c-.7,0-1.15.57-1.42,1.24a.07.07,0,0,1,0,0c0,.07-.36-.21-.79-.57,0-.09-.05-.15-.08-.16l-.29-.15h0a4.31,4.31,0,0,0-1.76-1.05,2.73,2.73,0,0,0-.53.05,1.12,1.12,0,0,0-.27-.05c-.45,0-1.28,0-1.93-.08l-.2,0a1.26,1.26,0,0,1-.56-.21c-.5-.36-.92-4.95-.92-5.45a2.65,2.65,0,0,0-.18-1.07.4.4,0,0,0-.43-.27c-.48.05-2.23.84-3.57,1.25l-.59.16-.46.11c-1.48.31-3.79.44-4.27,0l0,0a1.43,1.43,0,0,0-.39-.39c-1-1-3.05-3.25-3.72-3.21-.29,0-.63,0-1,0a1.31,1.31,0,0,0-.44,0h0l-.67,0,.18-1.22c-.27-.17-1.22.11-1.16-.26a.45.45,0,0,0,.28-.11,18,18,0,0,0,1.27-2,4.34,4.34,0,0,0,.15-2.11v0a3.31,3.31,0,0,0,.07-1.41,29.32,29.32,0,0,0-1.16-3.78s0,0,0,0c-.24-1-.45-1.81-.48-1.93a13.61,13.61,0,0,1,.25-2.32l.41,0a11.29,11.29,0,0,1,4.12.49,22.77,22.77,0,0,0,9.36,1.1,22.2,22.2,0,0,0,2.94-.86c.24-.12.31-1.09,1.41.31s3.79,7.23,4.16,7.89,1.34,3.2,1.65,3.56a6.31,6.31,0,0,0,2.88.86,10.6,10.6,0,0,1,3.36,1c.44.31,2,2.45,3.25,1.65s3.68-2.21,4.41-2.69a22.48,22.48,0,0,1,2.86-1.47,17.41,17.41,0,0,1,1.85-.92c.24,0,1.11-1.11,1.53,2.63s.55,4.35.68,5.45A8.55,8.55,0,0,0,352.43,278.37Z"/><path class="cls-2" d="M330,283.12a15.67,15.67,0,0,1,.1,3.43,6.87,6.87,0,0,1-.35,1.14h0c-1.08,1.11-6.15,5.56-7.46,6.72l-.29.26c-1,.91-2,1.95-2.34,2.26,0,0-.42.32,0,.47a13.75,13.75,0,0,1-2.22-.5l-.14-.05a24.93,24.93,0,0,0-5-1.34l-1.7-.24a40,40,0,0,0-4.49-.57h0a31.13,31.13,0,0,0-3.25-.23,21.25,21.25,0,0,0-5.06.75h0c-1.26.16-2.09.29-2.09.29-.12-1,1.34-4.41,1.65-4.85s1-.91.61-1.52-1.72-1.78-1.72-2.58-.66-2.13.31-3,2.64-2.26,3.67-2.26,4.53-.12,5.4-.68,1.7-3.36,1.77-4.1-.43-2.81,0-3.24c.16-.16.32-.34.5-.49a1.66,1.66,0,0,1,.54-.29h.45a.53.53,0,0,1,.16,0c.8.24,2.51,1,2.69,1.53s.8.92,1.72,1.52l.11.09.39.39c.26.36.27.59,1.27.63a8.78,8.78,0,0,0,3-.56l.46-.11.59-.16c1.56-.41,4-1,4-1a36.17,36.17,0,0,1,.24,5.17c-.11,1.58.54,1.47,1.42,1.56l.2,0,.4.08a3.26,3.26,0,0,0,1.8.05,16.33,16.33,0,0,1,2.29,1h0C329.74,282.92,329.86,283,330,283.12Z"/><path class="cls-2" d="M308.41,266.74v0a17.42,17.42,0,0,1-1.64,4.08.43.43,0,0,0-.06.17c-.38.05-.91-.11-.94-.35s-.29-.82-.82-.57a4.44,4.44,0,0,1-1.8.73c-.68,0-2.21-.33-2.5-.35A12,12,0,0,1,299,270c-.12,0-1.84-.08-1.84.13s1.55,1.17.46.85a9.89,9.89,0,0,1-1.8-.72s-.73,1.38-1,1.7a14.7,14.7,0,0,1-2.37,1.48,13.16,13.16,0,0,0-2.57,1.43c0,.2-.82,1.18-1.47.93a10.72,10.72,0,0,0-2-.57c-.44,0-.69-.9-.82-1.26a10.72,10.72,0,0,0-.77-2.42c-.28-.2-1.18-.61-1.3-.69a4.83,4.83,0,0,0-2-.73c-.66,0-1.36.9-1.8.52s-.49-.24,0-1,1.84-2.73,1.55-3.31-1-1.59-1.43-1.63a17.07,17.07,0,0,0-1.75-.08,3.56,3.56,0,0,1-1.66-.31h0l0,0c.32-.27,4-3.2,4.48-3.54l0,0,.07,0c.51-.23,3.26-1.25,3.2-1.62a5.78,5.78,0,0,1,.87-2l0-.05a3,3,0,0,1,.16-.26,1.83,1.83,0,0,1,.34-.43.34.34,0,0,1,.09-.08l.13-.13a2.5,2.5,0,0,1,.24-.22A4,4,0,0,1,288,255a.64.64,0,0,0,.2,0h0c1.13.12,1-1,1.62-1.19a2.8,2.8,0,0,0,.76-.2l.39-.13a3.94,3.94,0,0,0,1.23-.52c.49-.31.8-2.21.8-2.57a1,1,0,0,0-.05-.26h0v0a7.46,7.46,0,0,1-.11-1,5.59,5.59,0,0,0,2.08-.68c.49-.46,1-.46,1.35-1.56a22.06,22.06,0,0,0,.53-3.14c0-.32.9-.73,1.39-.49s3.3,1,3.95,1.19,4.82,1.19,5,1.72a20.3,20.3,0,0,1,0,4.6c-.16,1.47-.82,3.88-.65,4.28s.86.9.77,1.35c0,.15-.08.51-.15.95-.88.11,0,.42-.38,1.07a2.49,2.49,0,0,0,.31,2.57,5,5,0,0,1,.3.61s0,0,0,0c.41,1.68.94,3.83.94,3.93S308.35,266.09,308.41,266.74Z"/><path class="cls-2" d="M308.36,272.51a1.66,1.66,0,0,0-.54.29c-.18.15-.34.33-.5.49-.43.43.06,2.51,0,3.24s-.92,3.55-1.77,4.1-4.36.68-5.4.68-2.69,1.41-3.67,2.26-.31,2.21-.31,3,1.29,2,1.72,2.58-.31,1.1-.61,1.52-1.77,3.86-1.65,4.85c0,0,.83-.13,2.09-.29-.59.17-1.05.31-1.3.41a2.09,2.09,0,0,0-1.1,1.83c0,.5.12,3.24.12,4s-5.39,3.43-7,3.67-1.9,1.47-2.45,1.84c-.31.22-.82.75-1.49,1.25a1.19,1.19,0,0,0,.24-.88c0-.33-1.79-1-2.6-1.56s-1.6-.93-2.25-1.26-2.36-1.06-2.89-1.26-2.91-.49-3.35-.61a22.24,22.24,0,0,1-3.47-3.1c-.33-.46-.12-1.43-.21-1.68s-.81-.85-.9-1.1a14.65,14.65,0,0,0-.28-1.47,5.55,5.55,0,0,0-1.35-.87,2.58,2.58,0,0,1-.73-1.26c-.12-.48-1.52-.61-2-.61s-.94.46-1.23,1.19-.9-.24-1-.24-.77-2-1.18-2.21-.37.57-1,.78-1.06-.86-2.12-1.23a1.43,1.43,0,0,0-1.56.33h0a10,10,0,0,0,1.21-1.62,4.07,4.07,0,0,0,0-2.37c-.08-.49.08-.41,1-.82s1.47-3,2-3.8a43.41,43.41,0,0,1,3.27-3.22l.22-.34c.19,0,.49-1,1-2.21s1.16-1.52,1.66-1.59,1-.31,1-.73.68-.87,1-1.29,4.1-4.6,4.23-5,2.25-2.67,3.32-3.92a3.56,3.56,0,0,0,1.66.31,17.07,17.07,0,0,1,1.75.08c.41,0,1.14,1.06,1.43,1.63s-1.06,2.53-1.55,3.31-.45.65,0,1,1.14-.48,1.8-.52a4.83,4.83,0,0,1,2,.73c.12.08,1,.49,1.3.69a10.72,10.72,0,0,1,.77,2.42c.13.36.38,1.22.82,1.26a10.72,10.72,0,0,1,2,.57c.65.25,1.47-.73,1.47-.93a13.16,13.16,0,0,1,2.57-1.43,14.7,14.7,0,0,0,2.37-1.48c.25-.32,1-1.7,1-1.7a9.89,9.89,0,0,0,1.8.72c1.09.32-.46-.65-.46-.85s1.72-.16,1.84-.13a12,12,0,0,0,1.62.43c.29,0,1.82.35,2.5.35a4.44,4.44,0,0,0,1.8-.73c.53-.25.77.24.82.57s.56.4.94.35c-.06.37.89.09,1.16.26l-.18,1.22Z"/><path class="cls-2" d="M303,374.08a3.48,3.48,0,0,1-.16,2.12.45.45,0,0,1-.11.17v0l-.22.22a4.52,4.52,0,0,1-1.9.53c-1,.13-.59.68-.36,1.35a4.87,4.87,0,0,0-.06,1.21h0a3.77,3.77,0,0,1-.6.81c-.41.49-1.76,2.86-2.09,3.19a5.2,5.2,0,0,0-1.06,1.8c-.12.52.7,1.87,1.26,2.41s-.61.48-3.71.07-.61.25-.41.87-.61,2.19-1.51,2.16-1.59-1.27-2.49-2a2.25,2.25,0,0,0-2.45-.46c-.56.38-1.55,1.52-2.07,1.93a18,18,0,0,0-2.05,3.59c-.28.61-1.46.44-2,0s-.36-.45-1.79-.74-.41-.57-.53-1.1-.61-.9-1.31-1.51a3.57,3.57,0,0,1-1.11-2,21.33,21.33,0,0,1-.11-4.69,2.54,2.54,0,0,0,0-1.47c-.09-.45-.9-.7-.94-1.14a4.33,4.33,0,0,0-.9-2.08c-.57-.7-1.63.2-2.53.36s-.08.61-.28,1.68-2.25,1.14-3.06,1.84a12,12,0,0,1-2.05,1.14,4.21,4.21,0,0,1-1.51.53s-1.06-1-1.58-1.55a13.31,13.31,0,0,1-1.56-3.23c-.21-.57.81-.86,1.27-1.18s.85-.37.85-.86.21-.69.7-1.23a3.8,3.8,0,0,0,.69-1.55c.16-.41.41-.32-.13-.41a22,22,0,0,1-3.25-.61,10.93,10.93,0,0,0-3.52-.28c-1.06,0-2.25.57-3.83.53a5.81,5.81,0,0,0-2.57.48,8.82,8.82,0,0,1-2.82.66c-.77-.12-2.12.33-3.39,0a5.79,5.79,0,0,1-2.78-1.83c-.81-.82-1.41-2-2.44-3-.15-.15-.2-.27-.1-.61a6.3,6.3,0,0,0,1.16-2.57,4.77,4.77,0,0,1,.13-.51l0,0,.11-.27.09-.2c.38-.75.92-1.5,1.12-2a2.78,2.78,0,0,0,0-2.21,2.12,2.12,0,0,0-.21-.4.41.41,0,0,0,0-.08c-.13-.25-.41-.71-.72-1.2h0l0-.06a6,6,0,0,0-1.19-2,.77.77,0,0,0,.23,0h.08a4.41,4.41,0,0,0,.46-.1l1.52-.36c3.3-.78,9.58-2.34,10.73-3h0l.22-.11a.77.77,0,0,0,.27-.3l0,0c1-1.11,1.58-3.2,2.36-4.45l0-.06a12.22,12.22,0,0,1,1.07-1h0c.63-.32,1.24-.34,1.49-.56,0,0,0,0,0-.05.38-.43.37-1.84.62-2.81a6.18,6.18,0,0,1,1.06-1.37,4.36,4.36,0,0,0,1-1c.33-.3.66-.62,1-.92a41.27,41.27,0,0,1,4.4-2.86c.81-.4,3-5.48,3.26-6.11l0-.06s.05-.09.15-.24c.47-.74,2-3.11,2.77-4.48l0,0a13.25,13.25,0,0,1,1-1.15h0c.32.16.86.24,1.22.37l.1,0,.46.2.3.14,1.07.45,1.13.5.84.36.33.14.38.17.74.32.55.23.42.17.17.08.17.06a9.27,9.27,0,0,1,2.48,1.4,1.55,1.55,0,0,1,.19.31c.25.42.59,1.12,1,2,.16.36.32.74.49,1.14h0a5.59,5.59,0,0,0,.58,1.08,1.56,1.56,0,0,0,.13.19,2.49,2.49,0,0,0,.77.78l.42.21h0a.22.22,0,0,0,.13,0c.09,0,.13,0,.13-.11s0,0,0,0a5.28,5.28,0,0,1,.16-.85l0,0a7.31,7.31,0,0,1,1.54,1.47,9,9,0,0,0,.66.87c.34.34,1.93,2.23,3.4,3.71l0,0a8,8,0,0,0,.75.71,4.85,4.85,0,0,0,1.46,1.06,2.47,2.47,0,0,0,1,.16h0a9.64,9.64,0,0,1,2,.06h0c.27.27,0,.75.05,1.41,0,.43-1.47,1-1.91,1.08l-.08,0-.3,0,.74.42a1.42,1.42,0,0,0,.23.14l.13.09.09,0a7.43,7.43,0,0,0,.2,1.17,1.4,1.4,0,0,0-.05.55c.05.15.23.25.48.31h0c.47.29,2.26.13,2.64.32,0,0,0,0,0,0,.11.23-.08.56-.08.81,0,.4-.49,1.34-.62,2a16.42,16.42,0,0,0-.15,2.2c0,.1,0,.19,0,.27s0,.05,0,.07,0,.18,0,.23c0,.41-2.9,3.2-4.36,4.6-.2.17-.37.34-.51.47l-.11.11-.23.21a2,2,0,0,0-.09,1h0a7.7,7.7,0,0,0,.52,3.79,2.16,2.16,0,0,0,.24.33l.33.32,0,0c.56.59,1.42,1.6,2.34,2.69,0,.1,0,.2.07.29.16.85,1.1,1.59,1.84,2.25A5.75,5.75,0,0,1,303,374.08Z"/><path class="cls-2" d="M292.94,250.07h0a13,13,0,0,1-.75,2.83,7.41,7.41,0,0,1-1.23.52l-.39.13-.76.2c-.31,0-.86.68-.86.68s-.1.36-.78.51a2.64,2.64,0,0,0-2,1,2.5,2.5,0,0,0-.24.22.8.8,0,0,0-.13.13.34.34,0,0,0-.09.08,1.83,1.83,0,0,0-.34.43,1.13,1.13,0,0,0-.16.26l0,.05c-.47.74-.93,1.65-.93,1.65s-.06.37-1.29.92a17.78,17.78,0,0,0-1.85,1.08l-.07,0,0,0a30,30,0,0,0-3.91,2.83,8.3,8.3,0,0,1-.57.71l0,0h0c-1.07,1.25-3.23,3.63-3.32,3.92s-3.86,4.53-4.23,5-1,.86-1,1.29-.49.67-1,.73-1.17.43-1.66,1.59-.79,2.21-1,2.21L263,278.7l-.23-.07h-.05c-.47-.19-3.95-1.71-4.23-1.83h0l0,0c-.41-.4-3.68-3.67-4.9-4.55l0,0c-.42-.44-.77-.82-1-1.12a3.62,3.62,0,0,1-.22-.32c-.19-.28-.38-.57-.56-.89a36.61,36.61,0,0,0-2.34-3.68l0,0c-.84-1.35-1.67-2.69-2.16-3.59a7.93,7.93,0,0,1-.53-1.43.53.53,0,0,1,0-.17s0-.05,0-.08,0-.22,0-.35v0a6.1,6.1,0,0,1,1-1.94c.05-.09-.07-.2-.26-.29a.79.79,0,0,0-.08-.34,10.53,10.53,0,0,0-1.21,0h-.36l-1.37,0a3.26,3.26,0,0,1-.66-.07c-.44-.23-.36-5-.4-5.62,0-.2,0-.54,0-.92,0-.08,0-.16,0-.24l0-.29c0-.34.06-.82,0-1s-.17-.28-.41-.42l0,0-.08,0-.09,0a2.26,2.26,0,0,0-.35-.17l-.17-.07a2.84,2.84,0,0,0-.32-.14h0c-.63-.25-.51.48-.75,1.34a1,1,0,0,1-.21.41h0c-.79.05-1.73-.94-2.14-1.48h0a10.89,10.89,0,0,1-.19-2.19v0a6.65,6.65,0,0,1,.34-1.68l0-.05c.06-.13.14-.27.2-.41l0,0a7.23,7.23,0,0,1,1.2-1.21h0a5.68,5.68,0,0,0,.61-.31c.16-.11.16-.38.11-.66,0,0,0-.05,0-.06,0-.24-.09-.47-.1-.61l0-.14-.25-.36v0c.25.5,1.34.62,2.82.67a12.36,12.36,0,0,1,3.13,1.83,1.12,1.12,0,0,0,.15.11,4.76,4.76,0,0,0,.57.34,11.13,11.13,0,0,0,2.63.4h0l.18.08a2,2,0,0,0,1,0h.23a1,1,0,0,0,.52-.16c.46-.1.83-.2.83-.2.31.24,1.72.67,2.08.36s.61-1,1.47-.73,2.7,2.3,3.73,2.4,3.44.42,3.86-.33a26.13,26.13,0,0,0,1.16-2.5c.31-.68,2.64-2.27,3.25-2.88s1.59-.73,2-2.69-.19-2.82.36-3.43,2.58-.67,3.25-1.47,1.29-1.65,1.72-2.14.54-1.35,1.65,0a30.2,30.2,0,0,1,3,4.34,24.08,24.08,0,0,0,1.47,3.09c.24.34,1.28.89,1.53,1.26a55,55,0,0,0,4.46,5.39,3.4,3.4,0,0,1,1.17,1.36s-.3.9.31.9,1-.36,1.22,0a5.38,5.38,0,0,1,.25,1.78,11.66,11.66,0,0,1,1.46-.25C292.38,248.86,292.8,249.6,292.94,250.07Z"/><path class="cls-2" d="M284.7,307.39a1.19,1.19,0,0,1-.24.88.43.43,0,0,1-.12.11h0l-.88.55a3.7,3.7,0,0,1-.74.3A2,2,0,0,0,281.3,311c-.11.47-.15.94-.24,1.28a21.69,21.69,0,0,0,.17,5.2,1.05,1.05,0,0,1,0,.24.31.31,0,0,1,0,.11,22.59,22.59,0,0,1-1.33,2,9.56,9.56,0,0,0-.7.92c-.32.45-.7,1-1.11,1.61a.44.44,0,0,1-.08.11l-.2.3-.26.36,0,.06c-.34.48-1.75,2.33-2.6,3.54a.55.55,0,0,1-.12.14.72.72,0,0,0-.26.44,1.48,1.48,0,0,0-.25.5,4.36,4.36,0,0,1-.46.94l0,0a2.62,2.62,0,0,0-.2.29c-.07.12-1.35,2.13-2.57,4.19-.1.15-.15.24-.15.24l0,.06a36.38,36.38,0,0,0-2,3.68c-.81,2-1.1,1.87-2.57,2.77a25.83,25.83,0,0,0-3.1,2.52,4.35,4.35,0,0,0-1,.92c-.37.36-.72.71-1,1a3,3,0,0,0-1.06,1.37c-.34.89-.47,2.53-.62,2.81,0,0,0,0,0,.05s-.37-.33-1.4.49l-.09.07h0a2.73,2.73,0,0,0-1.07,1,17.28,17.28,0,0,0-1.72,2.13c-.5.76-.35,1.77-.68,2.38l0,0a3.13,3.13,0,0,1-.49.41h0c-1.39.54-7.37,2.18-10.73,3l-1.52.36-.46.1h-.32a.87.87,0,0,0-.55-.27,3.67,3.67,0,0,1-1.34-.26h0c-.14-.58.95-3.2,1-3.91v0a3,3,0,0,0,.05-.69c0-.94-.85-1.39-.85-1.88s.81-1.24.41-1.51a11,11,0,0,1-1.55-2.78,6.28,6.28,0,0,0-.09-1.79.58.58,0,0,0-.06-.17l0-.07c-.19-.42-.51-.77-.47-1.19a3.56,3.56,0,0,0-.21-1.55.54.54,0,0,0-.27-.27h0a4.68,4.68,0,0,0-2.55-.67,5.27,5.27,0,0,0-.77-.07,4.71,4.71,0,0,0-1,.17h0a1.05,1.05,0,0,0-.24.06l-.28.06a6.38,6.38,0,0,1-3.29.15l-.23-.07c-.19-.08-.38,0-.64.15,0,0,0,0,0,0a6,6,0,0,1-1,.15h0a2.64,2.64,0,0,1-1.23-.68c-.57-.48-1-.87-1.32-1.16a1.44,1.44,0,0,1-.28-.26c-.11-.16-.06-.37.47-.94h0a1.16,1.16,0,0,0,.18-.2c.93-1,1.8-3.89,1.94-4.43l0-.09.52-.62a14,14,0,0,0,2.18-1.54,4.49,4.49,0,0,1,1-.21,1.14,1.14,0,0,0,.87-.13l1.48-1,0,0,1.26-.81c.53-.37,2.37-1.39,2.81-2.41a6.34,6.34,0,0,0,.61-2.2,8,8,0,0,0,1.27-1,.47.47,0,0,0,.05-.27c.06-.24,0-1.4.06-1.74a.43.43,0,0,1,0-.05,3.78,3.78,0,0,1,.13-.42c.22-.62.62-1.74.86-2.26.09-.12.46-.4.82-.78.32-.21.58-.4.53-.66h0a1.4,1.4,0,0,0,.24-.68,4.56,4.56,0,0,1,.38-1.27l0-.06h0c.1-.2,1.68-3.12,2.8-5.34a5.82,5.82,0,0,0,.38-.79s0,0,0-.05a8.65,8.65,0,0,1,2.31-3,.24.24,0,0,0,.08-.09c.25-.27.42-.52.4-.7a.85.85,0,0,0-.07-.21,11.21,11.21,0,0,0,.23-2.64,21.84,21.84,0,0,1,.85-4.3,10.29,10.29,0,0,1,1.33-.34l.09,0a9.63,9.63,0,0,0,1.92-.43l0,0a.59.59,0,0,0,.25-.2s0,0,0,0c.34-.32.79-.88.9-1v0h0c.09,0,.61-.09,1.13-.19a1.17,1.17,0,0,0,.73-.14h0c.44-.11.32-.17.52-.6h0a3.62,3.62,0,0,0,.24-.43l0,0a.09.09,0,0,0,0-.05c.55-.93.5-4.35.5-4.57a1.43,1.43,0,0,1,1.56-.33c1.06.37,1.51,1.43,2.12,1.23s.58-1,1-.78,1.06,2.21,1.18,2.21.74,1,1,.24.78-1.19,1.23-1.19,1.84.13,2,.61a2.58,2.58,0,0,0,.73,1.26,5.55,5.55,0,0,1,1.35.87,14.65,14.65,0,0,1,.28,1.47c.09.25.82.86.9,1.1s-.12,1.22.21,1.68a22.24,22.24,0,0,0,3.47,3.1c.44.12,2.81.41,3.35.61s2.24.94,2.89,1.26,1.43.74,2.25,1.26S284.7,307.06,284.7,307.39Z"/><path class="cls-2" d="M264.28,279.05l-.22.34a43.41,43.41,0,0,0-3.27,3.22c-.49.78-1.06,3.39-2,3.8s-1.06.33-1,.82a4.07,4.07,0,0,1,0,2.37,10,10,0,0,1-1.21,1.62h0a.77.77,0,0,0-.23.36c0,.29-.09,2.5,0,3.06a2.09,2.09,0,0,1-.26,1.15.09.09,0,0,1,0,.05l0,0a3.44,3.44,0,0,0-.24.43h0a2.89,2.89,0,0,1-.32.42.84.84,0,0,1-.2.18h0c-.2.05-.46.1-.73.14s-.47,0-.66,0a.89.89,0,0,0-.47.19h0v0a2.87,2.87,0,0,0-.9,1,2.18,2.18,0,0,1-.26.22l0,0c-.15.06-1.08.24-1.92.43l-.09,0c-.33,0-.66.11-1,.18a1,1,0,0,0-.33.16c-1.08.79-1,4-1.47,4.78s.19,1.66.39,2.16a2.64,2.64,0,0,1-.33.91.24.24,0,0,1-.08.09,6.07,6.07,0,0,1-1.24,1c-.47.28-.73,1.2-1.07,2,0,0,0,0,0,.05l-.38.79-.16.23a31.37,31.37,0,0,0-2.64,5.11h0l0,.06a5.14,5.14,0,0,0-.62,1.95h0a3.13,3.13,0,0,1-.53.66,2.06,2.06,0,0,0-.82.78,12.58,12.58,0,0,0-.86,2.26,3.78,3.78,0,0,0-.13.42.43.43,0,0,0,0,.05c-.05.17-.09.31-.11.41a6,6,0,0,0,.05,1.33c-.05.27-1.11.65-1.32,1.29-.24.2-.15,1.17-.61,2.2a36.62,36.62,0,0,1-4.07,3.22l0,0-2.35,1.08c-.29-.07-.51-.18-.59-.13l-.44.34,0,0c-.16.13-2.14,1.52-2.14,1.52l-.39-.35h0c-.16-.19-.46-.44-.74-.72l0,0a8.87,8.87,0,0,1-.68-1.2s0,0,0,0a1.35,1.35,0,0,0-.37-.7.46.46,0,0,0-.31-.12h0a8.78,8.78,0,0,0-.92-.25h0l-.07,0a7.29,7.29,0,0,1-.92-1.76h0a4.18,4.18,0,0,1-.19-1.39c.06-.8.38-1.78.53-2.69a1.37,1.37,0,0,0,0-.19,2,2,0,0,0,0-.24v0c.05-.38.11-.93.17-1.46.2-.88.5-1.72.17-1.95s-.7-.17-1.36-.3c-.41-.13-.82-.23-1.08-.32l-.22-.08h0c-.35-.17-2.13-1.32-2.87-1.79l-.32-.19h0c-.77-.44-1.42,0-2.66-.24-.52-.09-1-.75-1.36-1.54a.07.07,0,0,1,0-.05,8.36,8.36,0,0,0-1.39-3.06l0,0a23.73,23.73,0,0,0-2.53-1.74,9.57,9.57,0,0,1-1.37-1.26,7.15,7.15,0,0,1-.91-1.9h0a11,11,0,0,1,.44-1.69,8,8,0,0,0,.23-1v0c.12-.31.22-.59.3-.79.24.41.8.72,1.34-.43a13.38,13.38,0,0,1,.68-1.27h0c.61-.66,1.24-1.33,1.32-1.44a7.35,7.35,0,0,1,1.65-1.32h0a25.83,25.83,0,0,0,3.85-.31,4.07,4.07,0,0,0,.38-.17.46.46,0,0,0,.23-.1,4.64,4.64,0,0,0,1.59-1.36l.39-.51.11-.12a3.86,3.86,0,0,1,1.81-.39,22.14,22.14,0,0,1,2.28,0h0a1.29,1.29,0,0,0,1.75-.79c.82-1.72,1.8-5.47,2.62-6.45a5.75,5.75,0,0,1,.64-.69,24.84,24.84,0,0,1,3.44-1.71,7.64,7.64,0,0,0,2.16-1.58,2.41,2.41,0,0,0,.73-1.09,13.44,13.44,0,0,1,2.53-4.22c1.08-.56,2.65-1.3,3.14-1.49s2.17,0,2.24-.53h0a.34.34,0,0,0,.06-.2,17.16,17.16,0,0,0,0-3.51,1.54,1.54,0,0,0-.22-.37l0-.05a14.79,14.79,0,0,0-1.77-1.93l-.15-.15-.27-.27a1.38,1.38,0,0,1-.91-.26v0c0-.05-.12-.15-.23-.28a.89.89,0,0,1-.08-.17,6.06,6.06,0,0,0-1.74-2.12l0,0a3.73,3.73,0,0,0-.94-.85h0a12.28,12.28,0,0,1-1.77-2,1.35,1.35,0,0,0-.81-.58,14,14,0,0,1,2.55-1.76,2.08,2.08,0,0,1,.32-.14l.28-.12a6.75,6.75,0,0,1,1-.37,3.75,3.75,0,0,0,1.06-1.1,2.07,2.07,0,0,0,.67-.91c.25-.34.47-.67.64-.89a3.67,3.67,0,0,1,.76-.54h.13l1.3.06a.06.06,0,0,0,.06,0l2,.13.17,0h.08l.15,0h.11l.25,0a.47.47,0,0,0,.55-.24l0-.09c0-.06.05-.12.07-.19a8.24,8.24,0,0,1,.39-.79l0,0-.13,1.38v0a1.41,1.41,0,0,0,0,.35s0,.05,0,.08a.53.53,0,0,0,0,.17,1.66,1.66,0,0,0,.12.61,7.64,7.64,0,0,0,.41.82,18.58,18.58,0,0,0,2.16,3.59l0,0c.86,1.38,1.75,2.76,2.34,3.68.18.32.37.61.56.89a3.13,3.13,0,0,0,.22.32,4.92,4.92,0,0,0,1,1.12l0,0c1.52,1.58,3.91,3.75,4.9,4.55l0,0h0a15.69,15.69,0,0,0,4.23,1.83h.05l.23.07A12.8,12.8,0,0,0,264.28,279.05Z"/><path class="cls-2" d="M252.16,243.91c.22.08.07.48-.28.69-.24.06-.49.11-.73.15h0c-.28,0-.7,0-1.17-.07h0c-.7-.21-2.68-.43-3.1-.67l-.1-.07a1.12,1.12,0,0,1-.15-.11c-.39-.29-.72-.61-1-.84a2.61,2.61,0,0,0-2.14-1c-.94-.14-2.82-.67-2.82-.67-.24-.49-.67-1.41-1-1.53a3.58,3.58,0,0,0-.45-.08h0l-.11,0c-.17,0-.4,0-.63-.07h0c-1-.12-2.31-.24-2.73-.24l-.34,0h0a8.08,8.08,0,0,0-1.06,0h0a1.09,1.09,0,0,1-.54-.43,5.74,5.74,0,0,1-.41-.75h0a.77.77,0,0,1-.06-.15l-.06-.09,0-.07a2.09,2.09,0,0,0-1.32-1.26,7.59,7.59,0,0,0-1.79,0h0l-.42,0-.15,0a1.21,1.21,0,0,1-.5-.37,12.73,12.73,0,0,0-3.67-2.26c-.1,0-.19.09-.31.25a3.14,3.14,0,0,0-.56-.18c-.62-.07-1.15.55-1.41.67h0a4.22,4.22,0,0,1-.54-.38c-.28-.23-.65-.52-1.1-.84a.91.91,0,0,0-.13-.1h0c-.55-.42-4-3.43-6.2-5.63a30,30,0,0,1-4.13-6.08c-.15-.22-.49-.81-.89-1.51v0c-2.33-5.14-2.34-6.3-2.83-7.18-.36-.63-1.81-4-2.79-6.74h0c-.17-1.61-.26-3.53-.43-4.38,1.16.44,3.71,1.42,4.87,1.27a15.59,15.59,0,0,0,6.25-3.24c1.47-1.41,4.41-3.25,5.94-3.49a44.11,44.11,0,0,1,5.94-.8c.79.12,7.4-.06,8.87.92s4.28,3.06,4.35,3.86.36,2.63.36,3.24a8,8,0,0,1-.79,2.63,20.2,20.2,0,0,0-.92,2.64c-.06.24-.37.67-.37.92s.87.61.92,1a8,8,0,0,0,.31,2.08,22.94,22.94,0,0,1,1.71,1.95c.13.31-.37,1.91.25,2.27a6.9,6.9,0,0,1,1.78,1.9c0,.19.67-.19.3,1.47s-1.78,1.22-1.78,1.9-.67,2-.3,2.5-.06,1.91,1.1,1.91a3.61,3.61,0,0,1,2,.3c.18.18-.4,1.65-.4,1.65a16.33,16.33,0,0,1,.7,1.84,13.88,13.88,0,0,1,0,2.81,5,5,0,0,0,.86,2.15,8.67,8.67,0,0,1,.74,1.95c0,.19,0,1.11.67,1.23s1.1.12.73.68-.21.79.14,1.28a7.67,7.67,0,0,0,2,1.53C250.57,242.44,251.86,243.78,252.16,243.91Z"/><path class="cls-2" d="M247.43,258.25a.74.74,0,0,1-.47.78.4.4,0,0,0-.13.07h0l0,0a1.55,1.55,0,0,0-.39.79c0,.07,0,.13-.07.19l0,.09c-.15.2-.52.22-.8.2h-.11l-.15,0h-.08l-.17,0c-.68-.07-1.47-.1-2-.13a.06.06,0,0,1-.06,0l-.23,0a7.94,7.94,0,0,0-1.07,0h-.13a.86.86,0,0,0-.56.28l-.2.26c-.33.31-.63.66-.64.89-.21.3-.45.62-.67.91a8.94,8.94,0,0,1-2,1.47l-.28.12a2.08,2.08,0,0,0-.32.14c-.63.27-1.23.56-1.35.61a12.1,12.1,0,0,0-1.22,1.14.84.84,0,0,0-1,.59,3.53,3.53,0,0,0-.14.43h0a15.45,15.45,0,0,1-1.45.89,12.4,12.4,0,0,1-1.33,0,5.44,5.44,0,0,0-1.43.07,3.88,3.88,0,0,0-1.07-.05c-.24.1-.79.84-1,.66h0a.12.12,0,0,0-.05-.05,2.12,2.12,0,0,0-.5-.39s0,0,0,0c-.48-.38-1.13-.81-1.43-.74-.15-.08-.26-.07-.45.12a.91.91,0,0,0-.22.41,3.11,3.11,0,0,1-.95.71,1.36,1.36,0,0,0-.34.21c-.48,0-.66.21-.69.76a2.23,2.23,0,0,0-.33.79c0,.16,0,.61,0,1h0l-.23.7h0a.45.45,0,0,1-.37.2,6.54,6.54,0,0,0-2.49-.1,3.23,3.23,0,0,0-2.29,1.63c-.36.5-.9,2-1.41,2h0c-.43-.34-1.9-2.64-2.37-2.76a6.59,6.59,0,0,1-1.83-1.92l-.06-.09c-.18-.34-.37-.69-.54-1v0a42.16,42.16,0,0,0-2.15-4.37l-.08-.16c0-.07-.08-.16-.12-.22-.26-.51-.48-1-.59-1.16h0a1,1,0,0,1,0-.24v0c.17-1-.63-5-.95-6.88-.07-.42-.23-1.14-.43-2a.68.68,0,0,0,0-.12.32.32,0,0,0,0-.09c-.7-3.1-1.92-8-2-10.06v0c0-.14,0-.28,0-.43,0-.93.15-2.52.32-4.21a16.37,16.37,0,0,0,.19-1.7.41.41,0,0,0,0-.12c.22-2,.45-3.85.57-4.74.61-2.25,1.91-8.7,2-9.07,0-.15.12-.89.24-1.8v0a27.14,27.14,0,0,0,.9-5.41c.1-.13.21-.14.33.1s.93,1.75,1.58,2.9v0c.25.55.53,1.14.84,1.79,2.68,5.65,7.67,9.4,10.38,11.43h0a.91.91,0,0,1,.13.1c.55.44,1.4,1.32,1.64,1.22h0a1.31,1.31,0,0,0,2-.49c.86.34,2.18,1.09,2.32,1.11a24.15,24.15,0,0,0,2.16,1.27l.15,0a1.51,1.51,0,0,0,.42,0h0c.64.08,1.61.21,1.91.2s.93.64,1.2,1l0,.07.12.24h0c.15.43.33,1.21,1,1.18h0a2.69,2.69,0,0,0,1.06,0h0c1,0,2.24.14,3.07.22h0l.63.07.11,0h0c.34.07,1.09,1.08,1.5,1.64v0a5.1,5.1,0,0,1,.33,1.11s0,0,0,.06c0,.29-.32.6-.72,1h0a3.69,3.69,0,0,0-.56.27,3.25,3.25,0,0,0-.64.94l0,0a1.74,1.74,0,0,0-.2.41l0,.05c-.09.2-.18.38-.23.52a3.89,3.89,0,0,0-.11,1.16v0a4.42,4.42,0,0,0,.19,2.19h0a1.15,1.15,0,0,0,.14.39c.33.47.48.78.95,1s.79.41,1.06.08h0c.79-.06,1-1.75,1-1.75h0l.32.14.17.07.35.17.09,0,.11.07a2.64,2.64,0,0,1,.38,1.45.7.7,0,0,0,0,.29c0,.08,0,.16,0,.24,0,.84-.05,3.74,0,4s0,2.2,0,2.34.19.16.44.23a5.86,5.86,0,0,0,2,0h.36A3.45,3.45,0,0,1,247.43,258.25Z"/><path class="cls-2" d="M243,274.69a17.54,17.54,0,0,1,.16,4.08h0c-.29.49-1.65.31-2.24.53a14.22,14.22,0,0,0-2.32.86,2.5,2.5,0,0,0-.82.63l-.86.47c-.81.48-1.79,3.92-2.2,4.57a2,2,0,0,1-.21.26,8.81,8.81,0,0,1-3,1.62A6.58,6.58,0,0,0,229,289.4a4,4,0,0,0-.64.5,35.38,35.38,0,0,0-3,6.66c-.07.68-.74.85-1.36.77a7.06,7.06,0,0,0-2-.31c-1.35.06-1.69.18-2.12.68l-.11.12a20.77,20.77,0,0,1-2,1.87.46.46,0,0,1-.23.1c-.36,0-2.91.27-3.62.27a1.34,1.34,0,0,0-.61.21h0c-.26,0-.49,0-.63,0-.54.08-1.56,1.4-2.34,2.72h0c-.49.54-1,1.06-1.09,1.24a.41.41,0,0,1-.71,0s-.11.17-.22.46a.92.92,0,0,1-.13-.37v0a6.48,6.48,0,0,0,0-1c0-.94-.07-3.31-.65-3.72a4.8,4.8,0,0,0-.52-.3c-.42-.36-1.75-1.38-3.09-2.35l-.06,0a13.18,13.18,0,0,0-1.35-1.05,5.33,5.33,0,0,0-1.27-.78h0c-1.26-.77-1.73.2-2.37.53l-.05,0-.08,0a3.35,3.35,0,0,1-2.65-.91l0,0c-.09-.1-.2-.2-.32-.31a5.79,5.79,0,0,0-1.69-1.27l-.63-.21a4.3,4.3,0,0,0-.41-.16l-.09,0a2.1,2.1,0,0,1-.79-.49c-.21-.33-.73-.77-.94,0a.18.18,0,0,1,0,0,8.38,8.38,0,0,0-.19,1.24c-.1.57-.24,1.32-.4,2.22h0c-.16.44-.33.88-.42,1.05a1.63,1.63,0,0,0-.06.35h0a2.51,2.51,0,0,1-2.34,1.31h0a9,9,0,0,1-1.32-.24,30.55,30.55,0,0,0-4-.53c-.53,0-1.47-.49-2.08.12-1.22.27-.33.42-1,1.51A7.53,7.53,0,0,1,177,300c-1,.12-2.35,0-3,.43-1.65.33-3.09,1.07-4.65,1.15a12.23,12.23,0,0,1-2.77-.49,3.5,3.5,0,0,0-2-.53c-.69-.09-1.41.45-2.1.88a6.71,6.71,0,0,1-1,.35,2.33,2.33,0,0,1-.51.06h0a2.66,2.66,0,0,0-1.65,0l-.12,0a2.59,2.59,0,0,0-.59.23l-.1.05h0a4.19,4.19,0,0,1-2.35-.09,2.08,2.08,0,0,0-1.14-.32c-1-.32-1.44,0-1.63.46a.08.08,0,0,0-.05.07.65.65,0,0,1,0,.11,1,1,0,0,0,0,.17.53.53,0,0,0,0,.12c0-.61.06-2,.13-2.38s-.42-2.63-.42-3.45.65-.9.33-2.53-1.88-2.86-1.88-3.59-.49-3.27-.65-4.17-1.79-1.06-2.78-2.11-1.55-4-2-4.9a10.13,10.13,0,0,1-.4-3.27c0-.58-1.31-.73-2.13-1.23a.92.92,0,0,0,.09-.13.43.43,0,0,0,.07-.1l0,0c.73-1,3.41-4.85,3.78-5.26l0,0,.17-.12A10.18,10.18,0,0,1,152,268H152l.59,0c.8-.06,1.51-.12,1.74-.15a3.35,3.35,0,0,0,1.23-.89h0l0,0c.36-.31.61-.56.9-.77l.11-.07a3.94,3.94,0,0,1,1.41-.51c.64.16,2.93-.9,3.5-1.4a19,19,0,0,1,6.15-.59l.26.06H168a38.59,38.59,0,0,1,3.94,1.78h0a1.68,1.68,0,0,0,.94.46,2.32,2.32,0,0,0,.81-.21,10.06,10.06,0,0,1,2-.28h0c.31.06.62.1.9.13h0c1,.44,2,.25,2.63.73a0,0,0,0,0,0,0l1.17.93a9.29,9.29,0,0,0,3.12.61h.06c.19,0,.4.08.59.09a1.63,1.63,0,0,1,.55.19c.32.22.41-.25.42-.8a.34.34,0,0,0,0-.1v0c0-.39,0-.78,0-.93s-.16-2.19-.28-3.73a0,0,0,0,1,0-.05c0-.08,0-.16,0-.23,0-.48-.06-.84-.07-1v0a1.42,1.42,0,0,1,.75-1,4.87,4.87,0,0,1,1,0c.44,0,1.06,0,1.55,0a22.82,22.82,0,0,1,2.69,1.59l0,0a5.67,5.67,0,0,0,.58.42h0l0,0,.1.07h0c1.31.82.32-.32.82-.73a26.37,26.37,0,0,1,4.4,0s.61.84,1.28,1.71c.39.54.81,1.08,1.14,1.45a1.16,1.16,0,0,0,.22.26l0,.07c.66.67,2.46,3.09,4.88,1.62a8.56,8.56,0,0,0,1.57-.54c.85-.38,1.26-2,1.3-2.18v0l.07.12h0a4.1,4.1,0,0,0,.59,1.16c0,.06.08.15.12.22l.08.16,1.1,2.16c.15.3.56,1.21,1.05,2.21v0a4.3,4.3,0,0,0,.54,1l.06.09a4.81,4.81,0,0,0,1.37,1.79c1,.49,2,2.21,2.6,2.77a.31.31,0,0,0,.23.12h0c.43.29,1.95-2.7,2.44-2.91a23.13,23.13,0,0,1,3.75-.61l.28.06s0-.1.09-.26h0a1.27,1.27,0,0,0,.23-.7h0a6.59,6.59,0,0,0,.32-1.63,1.21,1.21,0,0,1,0-.2,2.49,2.49,0,0,1,.69-.76,3,3,0,0,1,.44,0c.66,0,.71-.48.85-.9a1.86,1.86,0,0,1,.67-.53,5.33,5.33,0,0,0,1,.53,3.13,3.13,0,0,1,.41.21s0,0,0,0a5.26,5.26,0,0,1,.5.39l.05.05h0c.25.26.42.46.72.46.45,0,0-.82,1.35-1.07.6.05,1.34.14,1.91.14a2.24,2.24,0,0,0,.85-.19c1.23,0,1.3-.35,1.45-.89h0a6.64,6.64,0,0,0,1.11-1h0l0,0a14.43,14.43,0,0,0,2.61,2.53h0c.17.17.34.32.5.46l.44.39,0,0c.66.75,1.43,1.77,1.82,2.29a.58.58,0,0,0,.23.28v0c.26.34.91.26,1.18.53l.15.15c.46.46,1.51,1.58,1.77,1.93Z"/><path class="cls-2" d="M242.87,362.08c.27.58.25,1.81-.91,4.61l-.09.2-.11.27,0,0c-.77,1.8-1.16,2.63-1.29,3.08l-.06.08c-.46.61-1.64.66-2.29,1s-1.51,2.13-1.84,2.66.08,1.43.29,2.36-.74,1-.77,1.48-.41,1.58-.5,2.32,1.06,1.1,1.52,2,.36,1.31,0,4.25-.82,2.37-1.48,3.18a4.17,4.17,0,0,1-2.08,1.51,8.12,8.12,0,0,0-1.83.37c-1,.37-3.15.24-4.21.49s-1.34,1.31-1.75,1.67-3.64,1.1-5.88,1.19-3.39,1.46-4.49,1.87-6,2.33-6.49,2.49l-.3,0c0-.05-.14-.07-.39-.05l-.64.05-.55,0a4.28,4.28,0,0,1-2.79-.61,2.16,2.16,0,0,1-.06-.57c0-.66,2.36-2.25,2.73-3.23.33-.51,1.06-2.4,1.64-2.77a2.8,2.8,0,0,0,.63-1.4,1.64,1.64,0,0,0,.71-1.79c-.06-.47-.12-.84-.16-1.15.21-1.43-.8-3.26-.82-3.46a1.6,1.6,0,0,1,0-.17,7.54,7.54,0,0,0,.24-1.17,7.91,7.91,0,0,0,.21-2.47h0a1.06,1.06,0,0,0-.12-.34,2.15,2.15,0,0,0-.74-.78,6.12,6.12,0,0,1-.48-.77c0-.77.81-1.17.44-1.87.07-.8-.32-.67-1-2.21l-.13-.3a9.13,9.13,0,0,0-.93-1.78,6.62,6.62,0,0,0-1.29-1.25l0,0c-.45-.44-.85-.8-1.06-1.05h0a1.46,1.46,0,0,1-.18-.43,1.61,1.61,0,0,1,.16-1c.08-.15.17-.31.25-.48.36-.61.86-1.18,1.06-1.54s.68-1.15.92-1.54l.06-.1c.05-.09.1-.15.12-.2.27-.44-1-1.05-1.27-1.58,0-.66.58-1.23.58-2.09a4.43,4.43,0,0,1,.07-.78s0,0,0,0a11.73,11.73,0,0,0,.6-1.59c.25-.51.54-1.05.42-1.24l-.15-.24c0-.88-.46-1.85-.46-2.45a.13.13,0,0,1,0-.09c0-.06,0-.12,0-.18v0a1.59,1.59,0,0,1,1-.65l.12,0a11.61,11.61,0,0,0,1.75-.3c.62-.26,1.22-.18,1.44-.64h0c.83-.47,0-1.08.06-1.76v0a1.82,1.82,0,0,1,.44-.44,14.08,14.08,0,0,0,2.83-3.28,0,0,0,0,0,0,0l0-.09c.56-.71,3-3.16,3.17-3.36h0l.24,0,1.09-.21.77-.14c.61-.12,1.06-.57,1.67-1.68l0,0,.45-.56,0,0a10.43,10.43,0,0,1,2.35-1.58l.61.55a1.44,1.44,0,0,0,.28.26c.34.31,1.8,1.84,2.55,1.84h0a1.59,1.59,0,0,0,1-.15s0,0,0,0c.37-.07.64-.15.64-.15l.23.07a6.24,6.24,0,0,0,1.64.3c.21,0,1.1-.31,1.93-.51l.24-.06h0a6.66,6.66,0,0,1,1.77-.1,7.71,7.71,0,0,1,2.55.67h0a1.75,1.75,0,0,1,.27,1.45c-.17.5.52,1.27.68,1.56l0,.07c.1.38,0,1.51.15,2,0,.58,1.46,3,1.46,3.15a5.22,5.22,0,0,0-.32,1.14c-.08.46.83,1.85.8,2.57v0a16,16,0,0,1-.55,1.65c-.25.82-.7,1.79-.7,2,0,.08.1.15.24.22h0c.12.48,1.33.53,1.89.53h0c0,.07.66,1.11,1.23,2h0a6.27,6.27,0,0,0,.72,1.2A.41.41,0,0,1,242.87,362.08Z"/><path class="cls-2" d="M226.81,333.57a.27.27,0,0,1,.1.22,5.52,5.52,0,0,1-.23.75.32.32,0,0,0,0,.09,26.14,26.14,0,0,1-1.94,4.43c-.06.08-.13.14-.18.2h0a1.86,1.86,0,0,1-1.08.39,3,3,0,0,0-1.09.17,7.17,7.17,0,0,0-1.26,1.41l0,0a3.16,3.16,0,0,0-.45.56l0,0c-.66.83-1.33,1.6-1.67,1.68l-.77.14c-.36.07-.76.13-1.09.21l-.24,0h0a1.54,1.54,0,0,0-.46.17,13.44,13.44,0,0,0-2.45,2.77l-.26.42,0,.09a0,0,0,0,1,0,0c-.43.61-3.12,3-3.27,3.72-.34.55.12,1.08,0,1.6a.48.48,0,0,1-.06.18h0a15,15,0,0,1-3.13.93H207l-.12,0c-.43.08-.79.21-.9.45a1.76,1.76,0,0,0-.09.2v0a.53.53,0,0,0,0,.18.13.13,0,0,0,0,.09,3.52,3.52,0,0,0,.16,1.42,5.87,5.87,0,0,0,.3,1,4.75,4.75,0,0,1-.27,1.48c-.06.15-.13.3-.19.43a5.12,5.12,0,0,0-.41,1.16s0,0,0,0c-.4.9-.87,2.33-.65,2.87.05.65,1.27,1.58,1.27,1.58s-.07.11-.12.2l-.06.1c-.52.77-1.69,2.51-2,3.08-.08.17-.17.33-.25.48-.25.48-.42.9,0,1.39h0a4.59,4.59,0,0,0,1.06,1.05l0,0a10.34,10.34,0,0,1,2.22,3l.13.3c.23.63.37,1.11.37,1.11a11.37,11.37,0,0,1,.65,1.1c-.06.84-.8,1.23-.44,1.87a.93.93,0,0,0,.48.77c.37.51.79,1,.86,1.12h0c0,.22-.38,2.94-.45,3.64a1.6,1.6,0,0,0,0,.17,6.39,6.39,0,0,0,.45,1.84,6.19,6.19,0,0,1,.37,1.62,26.81,26.81,0,0,1-.55,2.94c-.26.2-.5.34-.56.54a10,10,0,0,1-1,1.76,14,14,0,0,0-.74,1.87c-.32.52-1.34.78-1.75,1.14s-.78.61-.86.86-.39,1.44-.06,1.8c.07.25.26.4.8.52a7.87,7.87,0,0,0,2,.09l.55,0h1c.1.18-.83.69-1.08,1.13a12.12,12.12,0,0,0-.41,3.06c-.17,1.18-2.42.94-2.9,1.47s-.78,2.45-1.1,3.35-2,4.9-1.31,5.75,1.14.7,1.19,1.31a6.57,6.57,0,0,0,.73,2.33c.45.94,2.69,2.28,3.42,5.55s-1.26,3.51-1.83,3.83a5.09,5.09,0,0,0-1.91,2.2c-.21.78.2.9.73,2s.36,5.51.36,6a6.24,6.24,0,0,0,.29,1.89,3.33,3.33,0,0,1,.08,1.67,26.65,26.65,0,0,0-.49,3.06,10.88,10.88,0,0,0,.78,2.86c.12.53.44,1.3.53,1.92a4.1,4.1,0,0,1-.29,2.16c-.29.41-2.57,1.14-3.55,1.3s-8,3.84-8.21,4a9.2,9.2,0,0,1-4.36-.77c-1.63-.78-2.16.12-3.18.53a4.36,4.36,0,0,0-2.09,2.48c-.41,1-.65.53-.65.53s-1.55-3.71-1.71-4.16-3.51-7.71-3.92-8.57-1.6-.16-2-.16a9.35,9.35,0,0,1-2.89-1.68c-.66-.61-1.89-.65-2.5-.93a7.5,7.5,0,0,0-2.77-.41c-.77,0-1.59.85-2.69.69s-1.35-1.95-1.52-2.48-.41-3.11-.53-3.76a11.4,11.4,0,0,1-.12-2.49c0-1.06,1.23-.74,1.52-1.51s.61-1,.65-1.39-.38-.89-1.52-1.14a26.43,26.43,0,0,1-3.13-.5c-.5-.24-.7-1.22-.78-1.7a17,17,0,0,1-.33-3.47c.09-1.19,2.45-2.9,2.12-3.39s.08-1.63,0-2.77-.81-1.55-1.79-2.37a17.87,17.87,0,0,0-3.43-1.8,13.48,13.48,0,0,1-2.86-1.63c-.4-.5-1.47-2.05-2.12-2.95s-1.55-.64-4.73-4a6.23,6.23,0,0,1-1.64-6.72s.32-.68.61-.59h0l.18.08a9,9,0,0,0,1.08.32l.05,0,.59.16a2.06,2.06,0,0,0,.66,0h.26a5.94,5.94,0,0,0,2.45-.9l.1-.07a.05.05,0,0,0,0,0l.09,0a6.25,6.25,0,0,0,.84-.56l.17-.13.13-.1,0,0,0,0a3.32,3.32,0,0,1,1.57-.34,17.57,17.57,0,0,0,2.42-.43,9.68,9.68,0,0,0,1.5-.22c.18-.09.08.06.36-.45h0a8.61,8.61,0,0,0,.73-1.3,6.12,6.12,0,0,0,.72-1.42c.16-.33.29-.62.38-.79a14.81,14.81,0,0,0,.16-3.46,14,14,0,0,0,0-3.11c0-.35-.08-.74-.13-1.12a1.36,1.36,0,0,1,0-.15c0-.16,0-3.38,0-4a2.69,2.69,0,0,1,.25-1.55,1.23,1.23,0,0,1,1.24-.41l.18,0h0c1.06.15,2.29.29,2.68-.18a1.75,1.75,0,0,0,.84-.92s0,0,0,0a1.25,1.25,0,0,0,.2-.38l0,0A.81.81,0,0,0,165,377a2.46,2.46,0,0,0-.11-.92,6.05,6.05,0,0,0-.58-1.33.61.61,0,0,1-.07-.14l0-.05a10.91,10.91,0,0,1-.48-2h0a.62.62,0,0,1,0-.12c0-.32.14-1.09.25-1.75,0-.15,0-.29.07-.42a2.89,2.89,0,0,0,.06-.45c0-.24.06-.47.08-.69a2.8,2.8,0,0,0,0-.4.22.22,0,0,1,0-.09c0-.1,0-.19,0-.28q0-.36,0-.66a.31.31,0,0,1,0-.09,9.41,9.41,0,0,1,.3-1.89c.46-.53.6-.78,1.36-1.6a13.63,13.63,0,0,1,1.26-.95l.1-.06.44-.2c.44-.18.81-.29,1-.37a2,2,0,0,0,.28-.15h0l.1-.06a2.07,2.07,0,0,0,.25-.15l0,0a3,3,0,0,1,1.15-.52,12,12,0,0,0,2.33.12c.46-.11,0-1.05,0-1.63V360a.45.45,0,0,0-.07-.3s0,0,0,0a.46.46,0,0,0-.27-.26,10.12,10.12,0,0,0-1.95-.25,1.71,1.71,0,0,1-.38-.21c-.13-.46-.25-3.23-.55-3.71a.8.8,0,0,0-.59-.34c-.45-.62-1.3-.51-1.61-.75a1.54,1.54,0,0,1-.19-.17c-.19-.21-.28-.5-.24-1.21,0-.93.66-1,.94-1.26a2.15,2.15,0,0,0,.46-.83.71.71,0,0,0,.17-.57c.09-.44-.74-.9-.86-1.12h0a.11.11,0,0,1,0-.06,6.13,6.13,0,0,1-.06-.81,2.37,2.37,0,0,0-.05-1v0a1.81,1.81,0,0,0,0-.19,5.27,5.27,0,0,0-.66-1.76,1.09,1.09,0,0,0-.13-.17,6.38,6.38,0,0,1-1-1.46s0-.08,0-.13l0-.16s0,0,0-.07a6.93,6.93,0,0,0-.17-1.37,1.77,1.77,0,0,0-.22-.33l0,0a11.8,11.8,0,0,0-2.12-2.48l0,0c-.2-.22-.36-.42-.48-.57a2.32,2.32,0,0,1-.38-.65h0c-.13-.43,0-.78-.1-1a9.86,9.86,0,0,1-.68-2.45c.48-.73,1.16-.73,1-1.65s-.5-1-.64-1.51c0-.13,0-.27-.06-.39s-.05-.34-.09-.53a.29.29,0,0,1,0-.09l0-.14c-.13-.77-.35-2.34-.41-3.18,0-.06,0-.13,0-.18v0a2.25,2.25,0,0,0-.58-1.48,1.93,1.93,0,0,0-.3-.27,10.8,10.8,0,0,1-.69-1c.62-.73.68.56.75-1a6.24,6.24,0,0,0-.52-2.29v0c-.07-.29-.11-.54-.14-.69a.75.75,0,0,1,.1-.36c.43-.74,1.29-.43.56-1.47,0-1-2.63-2.24-3-2.72s-.42-1.33-.67-2.36a2.38,2.38,0,0,0-.42-.93c-.1-.36-.18-.66-.21-.84.18-.39.51-1,.51-1a.45.45,0,0,0,.24-.38c0-.21-.12-.53-.61-1a3.13,3.13,0,0,1-.32-.3,5.83,5.83,0,0,0-.46-.55v0c-.17-.27-.18-.44-.11-.55.22-.06.57-.11.57-.63h0a3.11,3.11,0,0,0,.51-.88c0-.06-.17,0-.41.1.11-.45.27-.71.19-.85a13.63,13.63,0,0,0-2.78-1.26c-.29-.08-.37-.41-.37-.73v-.08s0-.1,0-.15,0-.14,0-.19a1,1,0,0,1,0-.17s0-.12.07-.18a4,4,0,0,1,1.63-.46c.41.13.79.24,1.14.32a3.8,3.8,0,0,0,1.22.37,1.79,1.79,0,0,0,1.13-.28h0l.1-.05.59-.23.12,0,.34,0a4.45,4.45,0,0,1,1.31.06h0a1.87,1.87,0,0,0,1.51-.41,15,15,0,0,1,2.1-.88c1.23.16,2.66,1.1,4.76,1h0c.31,0,.62,0,.91,0a7.23,7.23,0,0,0,3.67-1.14l.07-.05a7.85,7.85,0,0,1,1.77-.13c2.45.14,3,.17,3.63-.92.41-.25.37-.9,1-1.51,1.22-.27,6.17.64,7.36.65h0a10.52,10.52,0,0,0,1.14,0c1,0,1.13-.81,1.2-1.31h0a4.24,4.24,0,0,0,.48-1.4h0l.16-.49c.09-.33.15-1.05.24-1.73s.16-1.08.19-1.24a.18.18,0,0,0,0,0,15.93,15.93,0,0,1,1.73.49l.09,0a4.3,4.3,0,0,1,.41.16,10.1,10.1,0,0,1,2.32,1.48c.12.11.23.21.32.31l0,0c.22.22.43.45.58.63.52.61.91.74,2.07.28l.08,0,.05,0,.61-.27a2.41,2.41,0,0,1,1.79-.25c.57.36,1.59,1.08,2.62,1.83l.06,0a16.14,16.14,0,0,1,1.48,1.39,6.32,6.32,0,0,0,1.61,1c.75.64,1.19,4.53,1.13,4.94v.06a10.79,10.79,0,0,1-.17,1.16v0c-.18.44-.37,1-.6,1.51a2,2,0,0,0-.07,1.16h0a1.62,1.62,0,0,0,0,.59,3.61,3.61,0,0,0,.87,1.31,1.23,1.23,0,0,1,.21.52c0,.54,2.81,1.8,3.69,2.48l0,0a.49.49,0,0,1,.14.15c.31.4.72,1.79,1.25,2.91a.07.07,0,0,0,0,.05c.25.81.42,1.47.44,1.5s3.25.2,3.58.28h0l.32.19a13.4,13.4,0,0,0,2.7,1.72l.17.07h0l.22.08a5.67,5.67,0,0,0,1.08.32c.61.19,1.22.42,1.26.66a8.14,8.14,0,0,1-.07,1.59,4.58,4.58,0,0,0-.15,1.06c0,.13,0,.27,0,.4v0c0,.09,0,.17,0,.24s0,.15,0,.19c0,.33-.62,2.48-.67,2.89a3.68,3.68,0,0,0,.33,1.19h0a5,5,0,0,0,.79,1.66l.13.1.07,0h0a2.51,2.51,0,0,0,.92.25h0a1.68,1.68,0,0,1,.34.12s.18.33.37.7c0,0,0,0,0,0s.08.24.13.38a2.12,2.12,0,0,0,.55.82l0,0c.15.16.47.48.74.72Z"/><path class="cls-2" d="M208,216.54a4.63,4.63,0,0,1,0,.57,2.52,2.52,0,0,0-.29.88c-.06.36-.38,2.77-.61,4.53v0c-.33,1.35-.63,2.44-.69,2.73-.16.74-1.3,6.54-1.47,7.76,0,.09,0,.22-.05.38-.13.47-.22.76-.28.76-.21,0-.13,1.88-.29,4a.41.41,0,0,1,0,.12c-.07.57-.13,1.14-.19,1.7l-.06.38a21.35,21.35,0,0,0-.26,3.83v.2a1.85,1.85,0,0,0,0,.23v0c0,1.74.18,3.31.25,4,.12,1.13,1.55,5.22,1.77,6.1a.32.32,0,0,1,0,.09.68.68,0,0,1,0,.12c.22,1.15,1.36,8.19,1.38,8.91a.53.53,0,0,1,0,.15v0c-.31.56-.49,1.27-2.87,2.72a4.45,4.45,0,0,1-4.22-.95l-.66-.67,0-.07a2.53,2.53,0,0,1-.22-.26c-.33-.37-.75-.91-1.14-1.45-.66-.94-1-1.62-1.28-1.71-.4-.17-3.91-.41-4.4,0-1.14.13-1.2.37-1.07.54-.13-.08-.31-.21-.53-.37l0,0c-.94-.76-1.7-1.61-1.95-1.61s-.41,0-.74,0a2.56,2.56,0,0,0-2.56,0c-.44,0-.79.17-.79.4s0,.3,0,.62v0c0,.15,0,.51.07,1a2,2,0,0,0,0,.23,0,0,0,0,0,0,.05c.1,1.52.28,3.9.3,4.66v0a.34.34,0,0,1,0,.1c0,.6-.47.66-1,.61-.19,0-.4-.06-.59-.09h-.06a19.38,19.38,0,0,1-4.29-1.54,0,0,0,0,1,0,0l-.78-.61a18.1,18.1,0,0,1-1.85-.12h0a2.22,2.22,0,0,0-.9-.13h0a3.23,3.23,0,0,0-2,.28c-.47.11-.81.21-.81.21l-.94-.46h0a5.8,5.8,0,0,0-1.58-1.09c-.54-.17-1.49-.46-2.36-.69h-.05l-.26-.06a9.55,9.55,0,0,0-1.41-.3c-.82-.08-4.16.41-4.74.89-1.85.6-2.21,1.14-3.5,1.4a1.88,1.88,0,0,0-1.41.51l-.11.07-.12.07a7.58,7.58,0,0,0-.78.7l0,0h0a5,5,0,0,1-3,1l-.59,0c-1,.07-2,.13-2.32.13a6.11,6.11,0,0,0-2.12,1.28l-.17.12,0,0a47,47,0,0,0-3.78,5.26l0,0-.07.1a.92.92,0,0,1-.09.13c-.42.61-1.72-.81-2.2-1.14s-1.14-.57-1.31-1.39a18.85,18.85,0,0,0-.32-2.11c-.25-.82-1.39-.74-3-1.23s-1.79.16-2.28,0-.9-1.39-1.31-1.39-1.14.25-1.38-.65-.33-2-.58-2.53-1.05-.82-1.38-1.31-1.07-1.47-1.07-1.47a9.9,9.9,0,0,0-1.46-2.61c-.82-.9.24-.57.56-1.06s.17-1.06,0-1.79-1.22-1.4-1.18-2,0-.81,0-1.22a11.22,11.22,0,0,0,0-1.65c-.07-.19-1.06-.31-1.87-.07s-.65-.24-1.63-1-.66-1.23-.57-1.72.65-1.23.56-1.72-1.86-.9-1.86-.9.31-.81.55-1.55-1-1.06-1.14-1.63.66-.89,1.14-2c0,0,6.16-.27,9.92-.2l.88,0a8.48,8.48,0,0,1,1.78.17c.85.26,2.31-.91,3.93-2.06l0,0c1.59-.75,3.42-1.57,4.51-2,2.86.14,12.25-1.18,13.35-1.34l.11,0,.42,0c.6-.12,2.12-2.05,3.59-4,.21-.26.41-.52.61-.79l.87-1.11a5.51,5.51,0,0,0,.95-2.68c0-.12,0-.25.05-.37a16.73,16.73,0,0,0-1-7.15c-.15-.35-.35-.8-.57-1.34-.11-.29-.19-.46-.2-.51a1.5,1.5,0,0,1-.06-.16c-.47-1.29-3.63-10.08-3.68-10.83,0-.55.44-6,.67-9.77,0-.12.05-.23.08-.33a11.31,11.31,0,0,0-.71-5.9,20.6,20.6,0,0,1-.89-4.86,3.46,3.46,0,0,1,.13-.67c.67-1.24,2.85-3.67,2.78-4.16.13-.45-.85-2.07-1.83-3.62l0,0c-.77-1.48-1.64-3.19-2.36-4.68h0c-.57-2.12-1.42-5.54-2-7.84-.67-2.61-1.5-5.83-1.88-7.62v0c.18-.82,0-4.38.17-7.94.18-2.27.37-4.3.48-4.73.07-.25.32-1.16.67-2.4h0c1.57-2.9,3.08-9,2.92-10.84V131a.56.56,0,0,0,0-.15l-.05-.12v0c-.32-.88-1.46-3.09-2.36-5,0,0,0,0,0,0a16.09,16.09,0,0,1-1.3-4.86,1,1,0,0,1,0-.17c-.11-2.87-.25-7.56-.14-8.4.08-.6-.55-5.48-1.19-10.11,0-.11,0-.2,0-.28-.55-4-1.1-7.85-1.14-8.3,0-.65-1-4.27-1.66-6.57,0,0,0-.07,0-.08a1,1,0,0,0-.05-.18l-.19-.72c-.08-.28-.16-.54-.21-.74l0-.1a1,1,0,0,0,0-.14,15.41,15.41,0,0,1,2.69.44c.5.26,1.88,1,2.86,1.56s1.55-.16,1.88-.4,1.55-1.16,2.12-1.07a4.48,4.48,0,0,0,2.69-.24,2.64,2.64,0,0,1,2.37,0c.66.24,1.39,1.79,2,1.87s5.15-.41,5.39,0,1.31.17,2.36-.24a2.82,2.82,0,0,1,2.45.16c.9.33.58.57,1.4.41a5.76,5.76,0,0,1,2.93.25,7.25,7.25,0,0,0,3.35.56,3.68,3.68,0,0,0,2.2-.73c.33-.24,2.61-1.63,2.61-1.38a22,22,0,0,1-.65,2.69c-.16.41-2.2,1.71-2.45,2s-1.3.82-1.47,1.87-1.79,1.47-2.28,1.8a2.46,2.46,0,0,0-.58,2,10.33,10.33,0,0,0,1.56,2.6c.57.49,1,2.45,1,3.35s-.32,2,0,2.53a29.53,29.53,0,0,1,.9,4.57c.09.58,1.06.9,1.47,1.23a9.16,9.16,0,0,1,1.31,2.28c.17.41.57,3.43.73,4.41s2,8.08,2.21,8.49a29.33,29.33,0,0,1,.82,3.67c.07.82-.17,5.55-.17,6.13a8.93,8.93,0,0,0,.9,2.28,29.56,29.56,0,0,1,1.38,2.86c.09.49.33,8.64.33,10s-5.14,5.22-5.38,5.55.08,2.44.08,3.5.73,1.15,1.55,2.13.32,2.77.65,3.35a26,26,0,0,1,1.22,6c-.08,1,2.86,3.75,4.09,4.73s2.77,6.12,3.26,7.18.57,5.55.16,7.18,2.38,2.86,2.7,3.76,0,3.34.33,4,3.67,2.61,4,2.86a.81.81,0,0,1,.15.44l-.52-.2V203a14.65,14.65,0,0,0,.95,3.23h0c.05.47.09.91.16,1.29C204.79,209.52,207.65,214.58,208,216.54Z"/><path class="cls-2" d="M172.81,359.66a1.59,1.59,0,0,1,.07.46c0,.69-.41,1.59-.73,1.51a7.13,7.13,0,0,0-1.6,0,1.73,1.73,0,0,0-1.15.52l0,0a2.07,2.07,0,0,0-.25.15l-.1.06h0c-.35.16-.86.35-1.27.52l-.44.2-.1.06A4.35,4.35,0,0,0,166,364l-.1.12a4.45,4.45,0,0,0-1.36,1.6c-.26.29-.26.92-.3,1.89a.31.31,0,0,0,0,.09c0,.06,0,.31,0,.66a2.44,2.44,0,0,0,0,.28.22.22,0,0,0,0,.09l0,.4c0,.23,0,.47-.08.69a2.89,2.89,0,0,1-.06.45c0,.13-.05.27-.07.42s-.05.27-.08.42a8.33,8.33,0,0,0-.17,1.33.62.62,0,0,0,0,.12h0a4,4,0,0,0,.48,2l0,.05a.46.46,0,0,0,.07.14A7.93,7.93,0,0,1,165,377a1.64,1.64,0,0,1-.1.45,2.81,2.81,0,0,0-.2.38s0,0,0,0c-.24.33-.57.58-.84.92a7.89,7.89,0,0,1-2.68.18h0a12.45,12.45,0,0,0-1.45-.18c-.9,0-.13.49-.44.73s0,2.92.22,5.35a1.36,1.36,0,0,0,0,.15c0,.56.11,2.45.11,4.23-.13,1.48-.4,2.74-.4,3.37a2.71,2.71,0,0,1-.14.88c-.22.43-.47.94-.72,1.42l-.37.65a7.32,7.32,0,0,0-.36.65h0a5,5,0,0,1-1.86.67l-2.18.21c-1.29.12-1.41-.07-1.41.12s-.15.24-.4.44l0,0,0,0-.13.1-.17.13c-.28.2-.61.41-.93.6a.05.05,0,0,1,0,0,11.15,11.15,0,0,1-2.78,1h0a6.9,6.9,0,0,1-1.25-.16l-.05,0L145.2,399l-.18-.08h0a3.28,3.28,0,0,1-.65-.32c-.74-.49-1.59-.19-2.08-.31a27.13,27.13,0,0,0-3.61-.43c-.86,0-1.35-.79-1.65-1.41s-.61-.54-.8-.54a4.3,4.3,0,0,0-1.53.85,2.67,2.67,0,0,1-1.72.61c-.55,0-.61-.73-.61-.73a1.9,1.9,0,0,0-1,.85c-.31.62-2.52,1.41-3.32,1.6s-1.7-.12-2.44.24-1.22,0-2,0a3.82,3.82,0,0,1-2.15-.67,3.73,3.73,0,0,0-2.08-.43c-.73-.06-1.1.06-1.53-.55s-.18-.49-.36-.92a8.84,8.84,0,0,0-.8-1.65c-.37-.49.06-.73,0-1.29s-.49-.79-.85-1.23-.8-.3-1.6-.66-.42-.68-.85-1l.18-.6h0a.66.66,0,0,0,.13-.43c0-.72,0-4.4,0-5.83v0h0c0-.37.47-2.14.52-2.37h0a1.22,1.22,0,0,0-1.22-.79,1.5,1.5,0,0,1-.35,0s0,0-.06,0l-.17-.05a.47.47,0,0,1-.16,0,.3.3,0,0,1-.14,0,1.84,1.84,0,0,1-.25-.09l-.19-.08a11.31,11.31,0,0,1-2.55-1.89l0,0a2.31,2.31,0,0,1-.18-.23h0a5.54,5.54,0,0,1-.71-1.63,0,0,0,0,0,0,0c0-.51.2-.86-.64-1.17l-.18-.05c-1-.35-2-.44-2.27.05a1.64,1.64,0,0,0-.61.29l0,0h0a.51.51,0,0,0-.14-.24c-.36-.7-.61-1.56-1-1.8l-.13-.08c-.38-.23-.78-.46-1.77.08a2.83,2.83,0,0,1-3.12-.3,7.47,7.47,0,0,0-.92-.58,4.84,4.84,0,0,1-.73-1.07c-.14-.83-.07-1.86-.2-2.44l0,0a.56.56,0,0,0-.2-.35c-.08,0-.22-.12-.41-.22-.56-.47-1.49-1.24-2.87-2.52h0a7.82,7.82,0,0,1-1.07-1.89c-1-2.66-.1-4.44-1-5.71a2,2,0,0,0-.7-.66l-.07,0a10.35,10.35,0,0,0-3.3-1.36c-.74-.31-2-.56-2.52-.73a2.91,2.91,0,0,0-.78-.12h-.05l-.38-.09h0l-.93-.92a.43.43,0,0,0-.09-.1,12.43,12.43,0,0,0-.89-.87l0,0c-.49-.46-1.82-1.64-2.77-2.47h0a4.37,4.37,0,0,0-.85-.73h0c-.64-.51-2.86-1.59-3.21-1.8l0,0h0c0-.11,0-.82,0-1.74h0c.11-1.44.23-3.55,0-4.05a1,1,0,0,0-.29-.33h0c-.4-.8-6-1.69-6.76-1.8h0l0,0c0-.1.45-.92.56-1.14a6.92,6.92,0,0,1,2-1.84,4.16,4.16,0,0,1,2.63-.79c.74-.12,2-1.53,5.33-2.39s4.59-2.63,5.38-3.12a5.51,5.51,0,0,1,2.82-.5c1.28-.05-.67-1.89,0-3.49s2.69-3,3.49-4.22a23.46,23.46,0,0,0,1.72-4s.55-.74.92-1.17,1.09-.43,1.4-.62.18-1.28,1.59-2.81,1.72-2,2.2-2.38,2-.44,2.89-.44a16.61,16.61,0,0,0,3-.24c1.6-.24,1.23-.85,3.44-1.28s1.46-1,2.5-1.1a5.12,5.12,0,0,0,2.4-.38c.54-.36,1-1.41,1.28-1.71s1.9-.36,3.36-.55,1,.55,2.57.68a30.87,30.87,0,0,0,3.13.17c1.35,0,1.47-.48,2.63-1.09s1.9-2.27,2.51-2.64,2.64.68,3.49.92a8.91,8.91,0,0,0,2.81.8c1-.07,1-.31,1.36-.8s1.71-1.16,2.32-2a9.31,9.31,0,0,1,1.78-1.95,2.81,2.81,0,0,1,2.14,0,4.1,4.1,0,0,1,1.28,2.2c-.12.37,0,0,1.47.42s3.31,1.17,4.54,1.48.42-.12,1.28-.68,1,.25,2.38.92,1.23.43,1.6.43.73-.67,1-.74.86.43.86,1.16c0,.48.63.26,1.05.1a3.44,3.44,0,0,0-.1.78h0a1.94,1.94,0,0,1-.46.52.29.29,0,0,0-.11.11c-.19.07-.26.13.11.55v0a3.58,3.58,0,0,0,.46.55c.55.68.93,1.27.93,1.27s-.9.62-.75,1.37l-.11.23c-.07.18.11.32.32.61a21.81,21.81,0,0,0,1.09,3.29c.19.6.74.7,1.11,1.07a7.91,7.91,0,0,1,1.84,1.65c0,1-.76,1.18-.66,1.81v0a1.73,1.73,0,0,0,.14.69v0c.2,1,.52,2.4.5,2.62s-1.22-.2-.73.71c-.51.61.16.68.69,1a4.06,4.06,0,0,1,.88,1.75v0c0,.05,0,.12,0,.18a6.12,6.12,0,0,1,0,.63,11.2,11.2,0,0,0,.39,2.55l0,.14a.29.29,0,0,0,0,.09c0,.16.05.33.09.53s0,.26.06.39c.11.54.21,1.11.28,1.57.12.77-.74.69-.68,1.59-.5.73-.07.49.17,1.17.2.51.27,1.48.61,2.27h0a2.24,2.24,0,0,0,.82,1.18l0,0,0,0c.68.78,1.66,1.9,2.12,2.48l0,0c.22.33.23.31.39,1.7,0,0,0,.05,0,.07s0,.06,0,.09a.25.25,0,0,0,0,.07c0,.05,0,.09,0,.13a2.69,2.69,0,0,0,1,1.46,1.09,1.09,0,0,1,.13.17,9.6,9.6,0,0,1,.66,1.76,1.81,1.81,0,0,1,0,.19v0a8.56,8.56,0,0,1,.05,1s0,0,0,0a1.09,1.09,0,0,0,.07.78.11.11,0,0,0,0,.06h0a2.16,2.16,0,0,0,.64.8.64.64,0,0,1,.22.32,5.84,5.84,0,0,1-.17.57,5.29,5.29,0,0,1-1.34,1.19c-1,.7-.5,1.5.18,2.11a1.54,1.54,0,0,0,.19.17l.31.24a3.56,3.56,0,0,0,1.3.51,2.56,2.56,0,0,1,.58,1.79c0,.9-.17,1.71.2,2a3.32,3.32,0,0,0,.36.26v0c0,.1.17.16.37.18a3.06,3.06,0,0,0,.89.26c.65.13,1.13.07,1.33.25C172.79,359.64,172.81,359.65,172.81,359.66Z"/><path class="cls-2" d="M161.05,218a22.16,22.16,0,0,1,1.57,8.49c0,.12,0,.25-.05.37a9.44,9.44,0,0,1-1.82,3.79c-.2.27-.4.53-.61.79a30.57,30.57,0,0,1-4,4l-.11,0c-2.38.23-11.51.78-12.61,1.08a5.68,5.68,0,0,0-.74.26c-1.43-.08-3,.94-4.51,2l0,0a33.55,33.55,0,0,0-3,1.58,6.4,6.4,0,0,1-2.68.31l-.88,0c-1.74-.07-3.61-.24-4.28-.28a54.62,54.62,0,0,0-5.64.48,4.06,4.06,0,0,1-1.16-.56,6.1,6.1,0,0,0-.46-2.78c-.82-2.21-.58-1.07-1-1.63s-.33-1.8-.74-2.29-1.31-.08-1.55-.65a19.69,19.69,0,0,0-1-2.69,11,11,0,0,1-1.31-4v-3a6.84,6.84,0,0,1,.82-2.37,13.22,13.22,0,0,0,.9-3.42,8.3,8.3,0,0,1,1.46-2.7.72.72,0,0,1,1.07,0s.57-2.45.82-3.34a44.85,44.85,0,0,0,.69-5.92,13.83,13.83,0,0,1,.89-3,4.45,4.45,0,0,0-.81-1.92c-.41-.44-1.38-1.75-1.38-1.75a14.14,14.14,0,0,0,.12-2.45c-.12-.41-2.13-2.45-2.25-2.69s-.32-2.45-.49-3.07a14.63,14.63,0,0,1,.41-3.18c0-.32-1.14-.45-1.51-.69a9.4,9.4,0,0,0-2.58-.33c-.61,0-.81-.53-1.42-1.14s-.86-.25-1.55-.53-.33-.7-.37-1.43a7.55,7.55,0,0,0-.57-2.41,11.69,11.69,0,0,1-.82-1.88c-.24-.78.87-4.08.46-5.14S106.48,172,106,171.4s.29-1.26.44-2,2.5-4.9,2.42-5.75,1.34-1.31,3.17-2.2a2.12,2.12,0,0,0,1.44-2.58c0-.69,2-1.79,2.57-3.22s.29-5.19.29-5.43a20.3,20.3,0,0,0-.46-3.1c-.24-.86-2.24-1.51-2.57-1.63a6,6,0,0,1-1.26-3.06,16,16,0,0,1,.69-3.76c.08-.36.21-4.33.33-6.28s2.33-6,2.37-7-2-1.06-2.7-2.08-.33-2.94-.28-3.59,1.34-1.31,1.79-2a7.8,7.8,0,0,0,.74-3.26c0-.86,2.16-6.16,2.16-6.29s1.67-7,2.41-9.59,5.79-4.61,6.2-4.94,0-.73.29-1.3-3.14-2.66-3.92-3.07-.25-2.16,0-3.54,1.8-.78,2.77-.78.78-.78.78-1.14-.29-1.64.17-2.14a7.7,7.7,0,0,1,3.79-1.7,30.91,30.91,0,0,0,3.87-.16,23.9,23.9,0,0,0,3.88-1.31,4.41,4.41,0,0,1,3.18.49c.74.41,1.19,1.84,1.39,2.57s1.31,2.94,2.08,3.22a10.53,10.53,0,0,0,2.82.17,1,1,0,0,1,0,.14l0,.1c.05.2.13.46.21.74s.13.53.19.72a1,1,0,0,1,.05.18s0,0,0,.08c.24,1.09,2.58,13.22,2.8,14.87,0,.08,0,.17,0,.28.29,2.55,1.22,15,1.33,18.51a1,1,0,0,0,0,.17c0,.95.08,1.69.1,2a13.89,13.89,0,0,0,1.2,2.9s0,0,0,0c.92,2.28,2.06,4.29,2.36,5v0l.05.12,0,.15V131c-.09.76-1.9,7.2-2.92,10.84h0c-.75,1.4-1,4.27-1.15,7.13a69,69,0,0,0-.33,7c0,.23.08.55.16.94-.3,1.55,2.62,10.54,2.54,11.95a13,13,0,0,0,1.34,3.51h0c.24.82.42,1.44.53,1.71.19.45,1,1.68,1.83,3l0,0c1,1.9,1.8,3.43,1.83,3.62-.24.81-2.29,2.69-2.78,4.16a1.5,1.5,0,0,0-.13.67,12,12,0,0,0,.87,4.8.14.14,0,0,0,0,.06c.32,1.2.62,2.23.72,2.67a23.47,23.47,0,0,1-.09,3.56,43.49,43.49,0,0,0-.67,9.77,6.72,6.72,0,0,0,.18,1.08c.51,1.85,2.28,6.7,3.5,9.75a1.5,1.5,0,0,0,.06.16C160.86,217.52,160.94,217.69,161.05,218Z"/><path class="cls-2" d="M114.29,381.65h0l-.49,1.09a1.82,1.82,0,0,0,0,.8c0,.07,0,.24,0,.48h0v0c0,.61,0,5.83,0,5.83l-.13.43h0c-.19.22-.52,0-.79,0a1.45,1.45,0,0,1-.87-.43c-.24-.18-1.46-1.22-1.89-1.65s-1.22.43-2,.68-.92,1.16-1.35,1a3.34,3.34,0,0,1-1.16-.73c-.25-.26-.37-.26-1,.66s-2,.12-2.82.68a3.52,3.52,0,0,1-2.2.92,1.45,1.45,0,0,1-1.6-.86c-.42-.67-.92-.31-1.77-.31s-.19.8-.73,1-1.53-.18-2.39-.12-.49.67-1,1.23-.61,1.34-.73.79-1.23-.62-2.33-.37-1.41.13-2,3.24a14.28,14.28,0,0,1-1.65,5.27,5.12,5.12,0,0,1-1.53,1.84,8.11,8.11,0,0,1-3.37,1.47,1.28,1.28,0,0,1-1.35-.67,1.38,1.38,0,0,0-.92-.65c-.18,0-.49-.21-1.58-.58s-2.89,0-4.48.31a8.39,8.39,0,0,1-4.28,0,15.07,15.07,0,0,0-3.61-.49c-.74-.07-3.86-.49-5.7-.86s-3,.13-4.34,0-1.72-1.16-1.65-1.54,0-1.46,0-2.5-.92-.24-1.72-.24a8.82,8.82,0,0,0-2.82.67,4.07,4.07,0,0,1-2.44,0c-.56-.12-1.41-.74-1.84-.86s-1.22-.86-1.72-.68a10.24,10.24,0,0,1-2.26.68c-.49,0-1.1-.12-1.11-.42a14.87,14.87,0,0,1-.18-2.33c.07-1,.37-2,0-2.39a21.15,21.15,0,0,1-1.65-2.27c-.61-1-.24-4.41-1.11-5.33s-2.93-4.65-3.66-5.62S28.4,376,27.18,375s-7.59-4.15-10.53-6.6-4.41-2.45-4.41-2.45-6.16-7.1-9.43-10.14c-3-2.77-2.33-9.45-2.33-9.45l.51-.44s1.45-1.28,2.06-1.21S5,345,5.69,345s1.29-.49,2-.36a16.29,16.29,0,0,1,2.57,1.16,14,14,0,0,0,4.29,0c1.77-.25.73-.8.79-1A10.64,10.64,0,0,1,17.69,343c.42-.19,3.43-3.37,4.22-3.86s1.29-.43,5.51-2.26A19.88,19.88,0,0,0,33.55,333a15.61,15.61,0,0,1,1.89-1.53c.8-.49.74.67,1,1s2.33,3.79,3.61,5.32.37.31,1.72.38,2.2.05,3.25.12,1.34-.07,1.77-.5,2-.67,3.42-.67a4.12,4.12,0,0,1,2.64.55c1.16.55.85.86,1.41,1.72s.73,1.16,1.34,1.22a9.22,9.22,0,0,1,2.45.86,10,10,0,0,0,3.31.73c1.29.12,1.71-.42,2.63-.8a8.13,8.13,0,0,1,2.76-.79l.29,0h.06a5.4,5.4,0,0,0,1.73.49,13.2,13.2,0,0,1,3,.55,7.18,7.18,0,0,1,2,.76h0a19.71,19.71,0,0,1,.33,4.38h0c0,.55-.08,1-.1,1.21a.64.64,0,0,0,.15.53h0l0,0c.24.28.72.4,1.17.85.67.67,1.1.61,1.83.85a1,1,0,0,1,.21.1h0l.85.73h0A11.14,11.14,0,0,0,80,352.69a12.43,12.43,0,0,1,1.16.93l0,0,.89.87a.43.43,0,0,1,.09.1,3.65,3.65,0,0,1,.41.53.87.87,0,0,0,.52.39h0a1.62,1.62,0,0,0,.38.09h.05a27.64,27.64,0,0,1,6.6,2.21l.07,0,.24.18a1.89,1.89,0,0,1,.46.48l.05.07c.71,1.59-.37,5.31,2,7.53h0a10,10,0,0,0,2.87,2.52,3.57,3.57,0,0,1,.61.57l0,0a20.51,20.51,0,0,0,.2,2.44,1.36,1.36,0,0,0,.73,1.07c.76.88,1.92,1.89,2.76,1.5a5.41,5.41,0,0,1,3-.7l.13.08c.34.36.64,1.35,1,1.8,0,.1.1.17.14.24h0c0,.08,0,.08,0,0,.25.34.41.14.61-.29a4.39,4.39,0,0,1,2.27-.05l.18.05a1.82,1.82,0,0,1,.64,1.17,1.46,1.46,0,0,0,.09.52,5,5,0,0,0,.63,1.14h0a1.11,1.11,0,0,0,.12.16.19.19,0,0,0,.06.07l0,0c.14.2.3.37.44.54a7.46,7.46,0,0,0,2.11,1.35l.19.08a1.06,1.06,0,0,0,.25.09.3.3,0,0,0,.14,0l.33.09s0,0,.06,0A3.24,3.24,0,0,1,114.29,381.65Z"/></g></g></svg>